<?xml version="1.0" encoding="UTF-8"?>
<!-- Generator: Adobe Illustrator 25.4.1, SVG Export Plug-In . SVG Version: 6.00 Build 0)  -->
<svg xmlns="http://www.w3.org/2000/svg" xmlns:xlink="http://www.w3.org/1999/xlink" version="1.1" id="Capa_1" x="0px" y="0px" viewBox="0 0 511.814 511.814" style="enable-background:new 0 0 511.814 511.814;" xml:space="preserve" width="512" height="512">
<g>
	<g>
		<path style="fill:#FFFDFC;" d="M255.907,511.813c-74.101-0.151-147.061-34.388-194.274-91.595    C24.527,375.274,4.092,318.378,4.092,260.012c0-138.852,112.965-251.815,251.815-251.815c9.06,0,18.266,0.504,27.429,1.501    c17.112-8.542,50.258-19.058,59.276,5.72c1.211,3.266,1.561,6.45,1.747,8.801c22.2,8.322,43.041,19.713,62.1,33.952    c29.743,10.817,54.39,38.28,66.459,74.137c13.679,23.203,23.469,48.198,29.106,74.321c3.637,16.852,5.698,35.66,5.698,53.384    c0,69.466-27.672,134.144-77.919,182.12C383.423,486.464,320.111,511.944,255.907,511.813z"/>
	</g>
	<g>
		<g>
			<path style="fill:#5C156B;" d="M475.161,261.337c0,67.576-55.216,170.469-55.216,170.469     c-11.826,11.302-24.817,21.391-38.785,30.052c0,0-65.091,14.735-108.587,15.901c-2.189,0.071-10.621-5.276-12.81-5.276     c-16.775,0-37.026,9.992-52.825,6.684c-53.656-11.255-134.295-68.038-134.295-68.038     c-33.907-41.069-54.275-93.726-54.275-151.117c0-131.178,106.36-237.538,237.538-237.538     c113.927,0,209.08,80.163,232.161,187.166v0.024C488.067,209.663,475.161,244.062,475.161,261.337z"/>
		</g>
		<g>
			<g>
				<path style="fill:#FFFDFC;" d="M287.793,158.748c-1.596-6.873-3.342-13.711-5.234-20.508c-0.821-2.948-1.716-5.979-3.656-8.346      c-5.309-6.477-16.331-4.881-22.279,1.014c-5.948,5.895-8.141,14.49-10.089,22.634c-5.805-14.294-7.338-30.973-17.784-42.326      c-3.335-3.625-7.98-6.653-12.867-6.043c-5.148,0.642-8.953,5.057-11.667,9.478c-7.817,12.737-10.93,28.29-8.617,43.055      c-4.001-6.428-6.074-13.959-10.478-20.117c-4.404-6.158-12.555-10.815-19.478-7.749c-4.349,1.926-7.009,6.343-8.98,10.672      c-5.577,12.252-7.861,25.983-6.552,39.38L287.793,158.748z"/>
			</g>
			<g>
				<path style="fill:#FFFDFC;" d="M177.394,256.63c-1.681-4.197-3.452-8.357-5.313-12.477c-0.807-1.787-1.669-3.62-3.128-4.929      c-3.993-3.585-10.818-1.5-14.011,2.813c-3.192,4.313-3.744,9.969-4.184,15.317c-5.069-8.487-7.665-18.9-15.387-25.072      c-2.465-1.971-5.702-3.436-8.737-2.573c-3.198,0.908-5.177,4.075-6.465,7.139c-3.71,8.828-4.165,18.981-1.262,28.106      c-3.16-3.681-5.207-8.248-8.596-11.719c-3.389-3.471-9.005-5.626-13.09-3.01c-2.567,1.644-3.821,4.7-4.647,7.634      c-2.338,8.302-2.447,17.221-0.313,25.578L177.394,256.63z"/>
			</g>
			<g>
				<g>
					<g>
						<path style="fill:#FF9647;" d="M172.742,207.378h-6.513c-0.55,0-1.091-0.136-1.574-0.394l-0.841-0.451        c-1.913-1.024-3.486-2.565-4.532-4.439l-0.59-1.056c-0.267-0.479-0.408-1.016-0.408-1.562v-6.655        c0-0.211-0.174-0.381-0.389-0.381c-0.215,0-0.39,0.17-0.39,0.381v7.045c0,0.449-0.115,0.89-0.335,1.283l-0.527,0.945        c-1.046,1.874-2.62,3.414-4.532,4.439l-0.837,0.448c-0.486,0.26-1.03,0.397-1.584,0.397h-7.044c-0.215,0-0.39,0.17-0.39,0.381        c0,0.211,0.174,0.381,0.39,0.381h6.686c0.627,0,1.244,0.154,1.795,0.449l0.984,0.527c1.913,1.025,3.486,2.566,4.532,4.44        l0.181,0.325c0.447,0.8,0.681,1.697,0.681,2.609v5.812c0,0.211,0.174,0.381,0.39,0.381c0.215,0,0.389-0.171,0.389-0.381        l-0.002-6.091c0-0.74,0.217-1.464,0.625-2.086l0.374-0.568c1.046-1.874,2.619-3.415,4.532-4.44l1.125-0.602        c0.458-0.246,0.972-0.374,1.493-0.374h6.31c0.215,0,0.39-0.171,0.39-0.381C173.131,207.549,172.957,207.378,172.742,207.378z"/>
					</g>
				</g>
				<g>
					<g>
						<path style="fill:#FFBFC9;" d="M273.805,201.641h-8.886c-0.75,0-1.488-0.185-2.147-0.538l-1.148-0.615        c-2.61-1.398-4.756-3.5-6.183-6.056l-0.805-1.441c-0.365-0.654-0.556-1.386-0.556-2.13v-9.079c0-0.288-0.238-0.52-0.531-0.52        c-0.294,0-0.531,0.233-0.531,0.52v9.611c0,0.612-0.157,1.214-0.457,1.75l-0.719,1.289c-1.428,2.556-3.574,4.658-6.183,6.056        l-1.141,0.611c-0.663,0.355-1.406,0.541-2.161,0.541h-9.61c-0.294,0-0.531,0.232-0.531,0.52c0,0.287,0.238,0.52,0.531,0.52        h9.122c0.856,0,1.697,0.211,2.448,0.613l1.342,0.72c2.61,1.398,4.756,3.5,6.183,6.057l0.247,0.443        c0.61,1.092,0.929,2.316,0.929,3.56v7.929c0,0.287,0.238,0.52,0.531,0.52c0.294,0,0.531-0.233,0.531-0.52l-0.003-8.31        c0-1.009,0.296-1.997,0.853-2.846l0.51-0.776c1.427-2.557,3.573-4.659,6.183-6.057l1.534-0.822        c0.625-0.335,1.325-0.51,2.037-0.51h8.609c0.293,0,0.531-0.233,0.531-0.52C274.336,201.874,274.098,201.641,273.805,201.641z"/>
					</g>
				</g>
				<g>
					<g>
						<path style="fill:#CB7ED9;" d="M172.069,318.592h-8.886c-0.75,0-1.488-0.185-2.147-0.538l-1.148-0.615        c-2.61-1.398-4.756-3.5-6.183-6.056l-0.805-1.441c-0.365-0.653-0.556-1.386-0.556-2.13v-9.079c0-0.288-0.237-0.52-0.531-0.52        c-0.294,0-0.531,0.232-0.531,0.52v9.611c0,0.612-0.157,1.214-0.457,1.751l-0.719,1.289c-1.428,2.556-3.574,4.658-6.183,6.056        l-1.141,0.612c-0.663,0.355-1.406,0.541-2.161,0.541h-9.611c-0.294,0-0.531,0.232-0.531,0.52c0,0.287,0.238,0.52,0.531,0.52        h9.122c0.856,0,1.697,0.211,2.448,0.613l1.342,0.719c2.61,1.398,4.756,3.5,6.183,6.057l0.247,0.442        c0.61,1.092,0.929,2.316,0.929,3.56v7.929c0,0.287,0.237,0.52,0.531,0.52c0.294,0,0.531-0.233,0.531-0.52l-0.002-8.31        c0-1.009,0.296-1.997,0.853-2.846l0.51-0.775c1.427-2.557,3.573-4.659,6.183-6.057l1.534-0.822        c0.625-0.335,1.326-0.51,2.037-0.51h8.609c0.293,0,0.531-0.233,0.531-0.52C172.6,318.824,172.362,318.592,172.069,318.592z"/>
					</g>
				</g>
			</g>
		</g>
		<g>
			<g>
				<g>
					<g>
						<path style="fill:#FFE8D7;" d="M370.089,66.138c-26.265-0.047-51.927,10.869-68.996,32.349        c-31.667,39.849-22.247,95.799,2.564,136.436c13.353,21.869,30.87,40.954,44.378,62.728        c19.525,31.475,26.018,68.638,8.997,102.788c-8.44,16.934-22.03,31.232-38.418,40.668c-1.755,1.011-0.795,3.721,1.189,3.315        c34.651-7.102,63.902-33.455,85.989-61.717c48.872-62.533,74.24-153.444,57.405-232.021        c-7.269-33.927-30.03-69.262-64.644-80.14C389.24,67.617,379.625,66.155,370.089,66.138z"/>
					</g>
					<g>
						<g>
							<g>
								<path style="fill:#FFBFC9;" d="M343.823,184.782c-0.955,13.647-12.792,23.937-26.439,22.982          c-13.647-0.955-23.937-12.792-22.982-26.439c0.955-13.647,12.792-23.937,26.439-22.982          C334.488,159.297,344.778,171.135,343.823,184.782z"/>
							</g>
							<g>
								<path style="fill:#FFBFC9;" d="M434.5,130.928c-0.955,13.647-12.792,23.937-26.439,22.982          c-13.647-0.955-23.937-12.792-22.982-26.439c0.955-13.647,12.792-23.937,26.439-22.982          C425.165,105.443,435.454,117.28,434.5,130.928z"/>
							</g>
						</g>
						<g>
							<g>
								<path style="fill:#3A003C;" d="M329.433,156.029c-0.596,6.684-6.498,11.619-13.182,11.023          c-6.684-0.596-11.619-6.498-11.022-13.182c0.596-6.684,6.498-11.619,13.182-11.023          C325.094,143.444,330.029,149.345,329.433,156.029z"/>
							</g>
							<g>
								<path style="fill:#3A003C;" d="M398.563,119.501c-0.596,6.684-6.498,11.619-13.182,11.023          c-6.684-0.596-11.619-6.498-11.023-13.182c0.596-6.684,6.498-11.619,13.182-11.023          C394.224,106.916,399.159,112.817,398.563,119.501z"/>
							</g>
						</g>
					</g>
				</g>
				<g>
					<path style="fill:#3A003C;" d="M348.13,153.834l20.875-15.216c0,0,12.68,17.396,7.746,27.121       C371.817,175.465,348.13,153.834,348.13,153.834z"/>
				</g>
			</g>
			<g>
				<g>
					<path style="fill:#FFE8D7;" d="M332.115,327.356c8.462,72.128-46.563,144.64-121.72,145.125       c-36.005,0.232-70.835-18.171-91.538-47.441c-0.995-1.395,0.614-3.07,2.066-2.174c13.411,8.278,30.539,10.176,46.326,7.796       c7.98-1.178,16.085-3.481,22.315-8.613c7.755-6.387,11.705-16.479,12.858-26.455c3.497-30.342-14.988-57.576-16.535-87.381       c-1.322-24.764,10.27-49.834,29.972-64.873c7.968-6.081,17.291-10.603,27.162-12.007c1.06-0.153,2.123-0.283,3.193-0.365       c19.01-1.379,38.253,8.988,51.255,22.254c0.364,0.356,0.708,0.739,1.052,1.122c0,0,0,0,0.024-0.004       c9.372,9.776,16.906,21.14,22.5,33.385C326.795,300.213,330.517,313.643,332.115,327.356z"/>
				</g>
				<g>
					<g>
						<g>
							
								<ellipse transform="matrix(0.2157 -0.9765 0.9765 0.2157 -134.0595 480.7312)" style="fill:#FFBFC9;" cx="232.225" cy="323.817" rx="21.415" ry="21.415"/>
						</g>
						<g>
							<path style="fill:#FFBFC9;" d="M321.046,287.725c-3.27,4.488-8.285,7.714-14.219,8.572         c-11.727,1.697-22.567-6.424-24.26-18.128c-1.588-10.974,5.421-21.196,15.955-23.825c0,0,0,0,0.024-0.004         C307.917,264.116,315.452,275.48,321.046,287.725z"/>
						</g>
					</g>
					<g>
						<path style="fill:#3A003C;" d="M242.522,292.097c0.864,5.977-3.28,11.523-9.257,12.388s-11.524-3.28-12.388-9.257        c-0.865-5.977,3.28-11.523,9.257-12.388C236.111,281.975,241.657,286.119,242.522,292.097z"/>
					</g>
					<g>
						<path style="fill:#3A003C;" d="M289.488,258.908c0.864,5.977-3.28,11.524-9.257,12.388c-5.977,0.865-11.524-3.28-12.388-9.257        c-0.865-5.977,3.28-11.524,9.257-12.388C283.077,248.786,288.623,252.931,289.488,258.908z"/>
					</g>
					<g>
						<path style="fill:#3A003C;" d="M262.355,292.528c-0.27,0-0.544-0.012-0.823-0.039c-6.467-0.616-12.42-8.377-12.671-8.707        c-0.397-0.523-0.295-1.269,0.228-1.666c0.523-0.393,1.269-0.295,1.668,0.228c0.056,0.074,5.579,7.264,11.005,7.777        c1.671,0.149,3.123-0.342,4.445-1.529c1.457-1.308,2.212-2.849,2.31-4.71c0.272-5.249-4.866-10.984-4.917-11.042        c-0.441-0.488-0.404-1.238,0.081-1.68c0.488-0.439,1.239-0.404,1.68,0.081c0.239,0.263,5.849,6.516,5.533,12.757        c-0.128,2.493-1.169,4.633-3.097,6.365C266.193,291.803,264.367,292.528,262.355,292.528z"/>
					</g>
				</g>
			</g>
		</g>
		<g>
			<g>
				<g>
					<path style="fill:#FF9647;" d="M42.964,235.238c2.657,0.554,4.94,2.254,6.851,5.002c1.912,2.751,3.392,6.155,4.49,10.264       c0.458-2.013,1.08-3.707,1.849-5.086c0.768-1.376,1.648-2.465,2.624-3.271c0.975-0.803,2.031-1.347,3.156-1.64       c1.125-0.291,2.259-0.33,3.397-0.129c2.234,0.396,4.016,1.548,5.381,3.422c1.366,1.878,2.359,4.142,3.024,6.851       c0.666,2.709,1.047,5.682,1.168,8.997c0.122,3.315,0.027,6.655-0.277,10.061c-0.167,1.872-0.398,3.769-0.688,5.693       c-0.291,1.926-0.671,3.778-1.135,5.551c-0.147,0.638-0.602,1.183-1.376,1.628c-0.772,0.443-1.708,0.801-2.819,1.062       c-1.111,0.261-2.322,0.461-3.629,0.596c-1.308,0.136-2.578,0.225-3.793,0.271c-1.216,0.046-2.294,0.053-3.224,0.022       c-0.929-0.031-1.584-0.057-1.957-0.072c-1.307-0.052-2.627-0.112-3.955-0.179c-1.328-0.067-2.711-0.299-3.955-0.445       c-0.316-0.037-0.858-0.07-1.566-0.154c-0.706-0.082-1.495-0.171-2.363-0.27c-0.868-0.097-1.778-0.237-2.731-0.423       c-0.953-0.183-1.837-0.404-2.654-0.657c-0.819-0.254-1.518-0.578-2.103-0.969c-0.585-0.39-0.958-0.821-1.121-1.29       c-0.615-1.8-1.197-3.785-1.733-5.955c-0.537-2.169-0.986-4.406-1.342-6.707c-0.356-2.301-0.61-4.592-0.758-6.867       c-0.149-2.275-0.161-4.421-0.045-6.434c0.158-2.757,0.549-5.384,1.168-7.865c0.618-2.484,1.439-4.582,2.44-6.294       c1.001-1.712,2.161-3.005,3.466-3.881C40.058,235.194,41.462,234.925,42.964,235.238z M43.999,253.389       c-0.663-0.093-1.178,0.214-1.544,0.929c-0.365,0.712-0.589,1.686-0.664,2.918c-0.062,1.016-0.005,2.104,0.171,3.259       c0.176,1.159,0.444,2.161,0.796,3.007c0.107,0.231,0.426,0.469,0.959,0.709c0.533,0.242,1.135,0.451,1.809,0.632       c0.674,0.179,1.312,0.318,1.914,0.414c0.602,0.098,1.001,0.155,1.196,0.175c0.079,0.008,0.205,0.02,0.381,0.038       c0.176,0.017,0.362,0.018,0.559,0c0.197-0.016,0.376-0.053,0.535-0.11c0.16-0.055,0.242-0.154,0.249-0.299       c0.059-1.215-0.118-2.486-0.533-3.821c-0.414-1.333-0.947-2.557-1.603-3.676c-0.656-1.119-1.368-2.072-2.139-2.859       C45.317,253.919,44.621,253.476,43.999,253.389z M61.092,256.003c-0.668-0.074-1.181,0.274-1.533,1.058       c-0.35,0.784-0.569,1.688-0.654,2.716c-0.079,0.959-0.03,1.985,0.147,3.078c0.176,1.094,0.419,2.003,0.723,2.723       c0.064,0.215,0.248,0.386,0.551,0.512c0.304,0.129,0.639,0.223,1.003,0.282c0.366,0.062,0.711,0.119,1.036,0.175       c0.325,0.058,0.545,0.089,0.66,0.096c0.077,0.005,0.23,0.015,0.461,0.029c0.229,0.015,0.47,0.013,0.721-0.007       c0.251-0.018,0.485-0.073,0.701-0.162c0.217-0.091,0.331-0.204,0.341-0.34c0.073-0.954,0.005-2.014-0.205-3.184       c-0.21-1.168-0.502-2.255-0.878-3.269c-0.375-1.01-0.832-1.863-1.376-2.56C62.249,256.451,61.683,256.068,61.092,256.003z"/>
				</g>
				<g>
					<path style="fill:#FF9647;" d="M84.433,218.903c-0.955,3.278-2.214,6.032-3.895,8.299c-1.68,2.268-3.621,4.097-5.899,5.436       c-2.276,1.341-4.81,2.223-7.628,2.581c-2.817,0.358-5.736,0.245-8.723-0.393c-2.787-0.596-5.537-1.725-8.189-3.424       c-2.651-1.699-4.879-3.932-6.635-6.706c-1.755-2.775-2.901-6.078-3.404-9.893c-0.502-3.813-0.061-8.13,1.356-12.839       c1.374-4.569,3.257-8.128,5.546-10.612c2.29-2.484,4.786-4.118,7.476-4.898c2.69-0.78,5.483-0.867,8.365-0.306       c2.883,0.561,5.651,1.532,8.267,2.837c2.916,1.455,5.469,3.278,7.648,5.381c2.179,2.104,3.833,4.426,5.021,6.953       c1.189,2.528,1.817,5.219,1.983,8.133C85.884,212.367,85.434,215.467,84.433,218.903z M53.232,207.273       c-0.364,1.242-0.38,2.406-0.048,3.483c0.331,1.078,0.896,2.064,1.692,2.956c0.797,0.893,1.759,1.655,2.886,2.286       c1.127,0.633,2.302,1.134,3.517,1.512c1.372,0.426,2.78,0.707,4.216,0.852c1.437,0.145,2.765,0.111,3.986-0.093       c1.223-0.203,2.262-0.601,3.127-1.185c0.866-0.583,1.453-1.419,1.779-2.513c0.377-1.268,0.278-2.409-0.312-3.456       c-0.591-1.045-1.397-2.01-2.431-2.894c-1.034-0.884-2.159-1.653-3.373-2.293c-1.213-0.64-2.247-1.132-3.093-1.465       c-1.037-0.408-2.169-0.734-3.393-0.97c-1.223-0.236-2.404-0.294-3.544-0.165c-1.138,0.131-2.163,0.493-3.07,1.088       C54.266,205.01,53.615,205.968,53.232,207.273z"/>
				</g>
				<g>
					<path style="fill:#FF9647;" d="M103.235,177.196c-1.876,3.018-3.89,5.397-6.151,7.145c-2.26,1.748-4.627,2.957-7.174,3.57       c-2.547,0.613-5.22,0.697-8.056,0.205c-2.834-0.49-5.667-1.451-8.449-2.917c-2.596-1.367-5.037-3.219-7.243-5.581       c-2.205-2.362-3.866-5.107-4.933-8.25c-1.066-3.142-1.414-6.631-1.021-10.443c0.394-3.81,1.813-7.871,4.281-12.064       c2.394-4.068,5.062-7.025,7.908-8.831c2.847-1.805,5.725-2.729,8.619-2.782c2.894-0.053,5.75,0.584,8.557,1.863       c2.807,1.28,5.412,2.919,7.783,4.85c2.643,2.152,4.828,4.576,6.551,7.2c1.722,2.626,2.84,5.355,3.404,8.189       c0.565,2.836,0.489,5.711-0.143,8.692C106.535,171.025,105.202,174.032,103.235,177.196z M74.981,157.115       c-0.658,1.108-0.948,2.233-0.872,3.367c0.074,1.134,0.403,2.243,0.983,3.325c0.581,1.082,1.357,2.084,2.33,3.007       c0.972,0.925,2.021,1.736,3.142,2.439c1.266,0.795,2.601,1.462,3.998,2.004c1.399,0.543,2.732,0.881,4.004,1.023       c1.273,0.143,2.413,0.042,3.429-0.293c1.017-0.334,1.823-0.999,2.436-1.994c0.709-1.152,0.909-2.314,0.584-3.513       c-0.325-1.197-0.893-2.371-1.715-3.521c-0.822-1.15-1.77-2.208-2.841-3.159c-1.071-0.951-1.997-1.706-2.772-2.255       c-0.951-0.673-2.018-1.29-3.199-1.843c-1.18-0.553-2.359-0.919-3.538-1.094c-1.179-0.173-2.296-0.09-3.347,0.247       C76.55,155.193,75.672,155.95,74.981,157.115z"/>
				</g>
				<g>
					<path style="fill:#FF9647;" d="M132.547,140.836c-2.536,2.459-5.07,4.24-7.72,5.331c-2.649,1.092-5.297,1.631-8.017,1.559       c-2.719-0.071-5.46-0.679-8.239-1.881c-2.778-1.2-5.452-2.849-7.961-4.968c-2.342-1.978-4.416-4.38-6.137-7.218       c-1.72-2.837-2.797-5.908-3.18-9.221c-0.382-3.312,0.049-6.785,1.304-10.4c1.254-3.613,3.602-7.208,7.024-10.663       c3.32-3.352,6.659-5.549,9.918-6.575c3.26-1.025,6.354-1.189,9.277-0.508c2.923,0.68,5.659,2.012,8.21,3.947       c2.551,1.936,4.824,4.163,6.798,6.619c2.2,2.737,3.88,5.631,5.047,8.619c1.166,2.99,1.699,5.945,1.649,8.874       c-0.05,2.931-0.754,5.747-2.038,8.52C137.196,135.647,135.205,138.258,132.547,140.836z M108.379,114.166       c-0.908,0.911-1.448,1.929-1.619,3.047c-0.173,1.118-0.082,2.273,0.27,3.463c0.353,1.191,0.922,2.352,1.708,3.483       c0.784,1.133,1.674,2.175,2.658,3.131c1.112,1.08,2.322,2.054,3.62,2.924c1.3,0.872,2.577,1.531,3.833,1.986       c1.256,0.456,2.431,0.646,3.529,0.578c1.099-0.068,2.056-0.509,2.888-1.322c0.964-0.941,1.416-2.022,1.347-3.269       c-0.07-1.246-0.39-2.528-0.972-3.849c-0.582-1.321-1.311-2.58-2.188-3.765c-0.877-1.185-1.65-2.144-2.315-2.865       c-0.816-0.885-1.761-1.743-2.836-2.568c-1.074-0.824-2.187-1.469-3.341-1.929c-1.155-0.458-2.302-0.654-3.439-0.587       C110.387,112.692,109.333,113.208,108.379,114.166z"/>
				</g>
				<g>
					<path style="fill:#FF9647;" d="M169.8,112.682c-3.077,1.777-5.998,2.867-8.884,3.244c-2.885,0.378-5.648,0.211-8.355-0.561       c-2.707-0.771-5.324-2.061-7.858-3.925c-2.533-1.862-4.87-4.121-6.941-6.797c-1.933-2.496-3.506-5.34-4.625-8.535       c-1.119-3.194-1.535-6.476-1.196-9.843c0.339-3.366,1.534-6.708,3.586-9.999c2.051-3.289,5.213-6.303,9.471-8.922       c4.131-2.54,8.054-3.929,11.627-4.161c3.574-0.231,6.782,0.359,9.599,1.756c2.817,1.396,5.276,3.4,7.385,5.965       c2.11,2.565,3.853,5.354,5.24,8.298c1.546,3.281,2.531,6.592,2.993,9.868c0.461,3.278,0.309,6.359-0.405,9.267       c-0.715,2.909-2.046,5.536-3.944,7.968C175.592,108.737,173.026,110.818,169.8,112.682z M151.394,80.297       c-1.125,0.684-1.899,1.564-2.321,2.628c-0.424,1.064-0.588,2.227-0.495,3.485c0.094,1.259,0.414,2.539,0.958,3.841       c0.544,1.303,1.213,2.54,1.997,3.716c0.885,1.328,1.892,2.577,3.009,3.747c1.119,1.173,2.259,2.134,3.421,2.892       c1.162,0.76,2.299,1.239,3.416,1.448c1.117,0.209,2.173,0.016,3.186-0.576c1.173-0.685,1.864-1.639,2.072-2.888       c0.206-1.248,0.17-2.595-0.119-4.044c-0.289-1.449-0.738-2.874-1.353-4.26c-0.614-1.386-1.175-2.523-1.682-3.399       c-0.62-1.075-1.378-2.154-2.275-3.231c-0.896-1.077-1.873-1.985-2.936-2.719c-1.063-0.733-2.18-1.204-3.346-1.411       C153.762,79.318,152.576,79.578,151.394,80.297z"/>
				</g>
				<g>
					<path style="fill:#FF9647;" d="M213.431,94.37c-3.5,0.971-6.677,1.288-9.65,0.898c-2.972-0.389-5.693-1.289-8.213-2.777       c-2.522-1.485-4.826-3.457-6.909-5.972c-2.082-2.513-3.872-5.361-5.289-8.56c-1.323-2.985-2.195-6.227-2.512-9.722       c-0.317-3.494,0.104-6.914,1.326-10.248c1.223-3.332,3.32-6.442,6.297-9.29c2.975-2.846,7.011-5.135,12.027-6.733       c4.866-1.551,9.188-1.968,12.839-1.286c3.651,0.683,6.7,2.117,9.137,4.275c2.437,2.158,4.344,4.846,5.748,8.015       c1.405,3.17,2.381,6.473,2.963,9.839c0.649,3.752,0.735,7.384,0.318,10.838c-0.418,3.456-1.386,6.547-2.856,9.307       c-1.472,2.762-3.472,5.07-5.977,7.025C220.171,91.934,217.101,93.352,213.431,94.37z M203.551,56.778       c-1.315,0.41-2.333,1.108-3.045,2.082c-0.715,0.973-1.194,2.113-1.44,3.413c-0.246,1.301-0.269,2.679-0.072,4.136       c0.195,1.457,0.535,2.881,1.006,4.27c0.532,1.57,1.208,3.09,2.015,4.561c0.808,1.473,1.695,2.739,2.657,3.807       c0.962,1.069,1.972,1.851,3.032,2.353c1.061,0.504,2.163,0.586,3.327,0.253c1.348-0.385,2.286-1.167,2.822-2.378       c0.535-1.21,0.857-2.584,0.957-4.129c0.1-1.545,0.036-3.108-0.201-4.676c-0.238-1.568-0.488-2.868-0.755-3.89       c-0.327-1.253-0.789-2.546-1.391-3.873c-0.601-1.326-1.33-2.502-2.192-3.522c-0.864-1.019-1.854-1.784-2.966-2.293       C206.193,56.385,204.934,56.347,203.551,56.778z"/>
				</g>
				<g>
					<path style="fill:#FF9647;" d="M255.978,54.865c0.049,0.797,0.046,1.888-0.008,3.264c-0.055,1.379-0.173,2.863-0.345,4.446       c-0.174,1.583-0.46,3.193-0.853,4.826c-0.394,1.634-0.874,3.117-1.435,4.447c-0.562,1.331-1.266,2.422-2.107,3.28       c-0.843,0.858-1.838,1.329-3,1.431c-1.419,0.124-2.676-0.264-3.798-1.18c-1.123-0.917-2.129-2.128-3.026-3.653       c-0.899-1.525-1.689-3.249-2.368-5.182c-0.678-1.932-1.263-3.844-1.745-5.736c-0.483-1.89-0.863-3.644-1.133-5.262       c-0.271-1.616-0.469-2.856-0.593-3.722c-0.125-0.866-0.282-1.958-0.471-3.271c-0.188-1.312-0.294-2.716-0.316-4.203       c-0.021-1.485,0.078-2.971,0.301-4.444c0.222-1.47,0.679-2.839,1.376-4.099c0.697-1.259,1.702-2.333,3.015-3.222       c1.311-0.888,3.022-1.469,5.113-1.723c1.861-0.226,3.431,0.063,4.7,0.864c1.266,0.802,2.311,1.919,3.137,3.361       c0.826,1.443,1.463,3.104,1.919,4.988c0.456,1.885,0.795,3.77,1.021,5.643c0.224,1.875,0.366,3.636,0.431,5.273       C255.857,52.624,255.92,53.919,255.978,54.865z M255.867,82.784c0.052,0.787-0.157,1.473-0.619,2.065       c-0.461,0.594-1.083,1.099-1.859,1.526c-0.778,0.426-1.621,0.758-2.53,1c-0.907,0.241-1.82,0.399-2.738,0.476       c-1.35,0.112-2.658-0.022-3.939-0.402c-1.284-0.382-1.997-1.116-2.141-2.242c-0.087-0.676,0.093-1.329,0.553-1.961       c0.456-0.63,1.068-1.2,1.836-1.702c0.767-0.501,1.63-0.917,2.589-1.241c0.957-0.324,1.883-0.52,2.775-0.59       c1.465-0.114,2.83,0.07,4.081,0.541C255.126,80.726,255.788,81.581,255.867,82.784z"/>
				</g>
			</g>
		</g>
		<g>
			<g>
				<g>
					<g>
						<path style="fill:#FF9647;" d="M106.554,350.804c-2.086,1.12-6.004,1.204-8.336,1.704        c-13.283,2.766-19.486,7.253-32.722,3.167c-3.717-1.126-5.257-0.534-7.038-4.011c-1.252-2.427-7.038-6.587-7.038-6.587        c0.29-1.571,0.778-3.13,1.342-4.645c0.199-0.56,0.426-1.114,0.647-1.641c1.278-3.2,2.671-6.405,4.141-9.566        c0,0,13.496-7.185,20.381-15.194c2.348-2.697-0.3-7.378,3.261-7.742c3.54-0.397,4.964,4.058,7.414,6.642        c4.772,5.084,16.228,5.302,16.228,5.302c1.323,2.355,2.499,4.737,3.585,7.131c1.655,3.681,4.234,9.006,5.631,14.378        C114.051,339.741,113.025,347.371,106.554,350.804z"/>
					</g>
					<g>
						<path style="fill:#FFE8D7;" d="M104.835,318.232c-15.24,3.541-30.481,7.082-45.722,10.624        c-0.511,0.125-1.05,0.244-1.562,0.369c4.515-9.576,10.002-18.726,16.886-26.735c2.348-2.697,5.163-5.442,8.725-5.806        c3.54-0.397,6.907,1.744,9.357,4.328C97.29,306.096,101.434,312.025,104.835,318.232z"/>
					</g>
					<g>
						<path style="fill:#3A003C;" d="M109.236,356.861c-2.086,1.12-4.45,1.642-6.781,2.141c-13.283,2.766-27.766,4.546-41.003,0.46        c-3.717-1.126-7.497-3.064-9.279-6.542c-1.252-2.427-1.272-5.146-0.754-7.843c20.894-1.251,41.806-3.013,62.632-5.336        C115.841,346.565,115.707,353.428,109.236,356.861z"/>
					</g>
				</g>
				<g>
					<path style="fill:#FFFDFC;" d="M87.516,303.729c-0.19,3.328,0.783,6.617,2.042,9.704c1.319,3.235,3.269,6.61,6.578,7.731       c0.41,0.139,0.869,0.237,1.266,0.065c0.673-0.292,0.822-1.171,0.816-1.905c-0.035-4.211-2.001-8.145-4.09-11.803       C93.177,305.854,87.902,296.962,87.516,303.729z"/>
				</g>
			</g>
			<g>
				<g>
					<g>
						<path style="fill:#FF9647;" d="M322.985,22.474c0.691,1.866,1.78,6.706,1.926,8.704c0.761,11.377,3.525,12.564-1.412,23.107        c-1.368,2.963-1.392,5.724-4.493,6.804c-2.165,0.76-6.327,5.966-6.327,5.966c-1.274-0.424-2.515-1.011-3.71-1.656        c-0.443-0.231-0.878-0.484-1.291-0.729c-2.515-1.435-5.021-2.967-7.482-4.557c0,0-6.536-11.876-12.403-18.536        c-1.972-2.267-3.172-1.23-3.062-4.236c0.08-2.992-0.124-5.578,2.311-7.317c4.786-3.382,9.492-10.543,9.492-10.543        c2.114-0.828,4.233-1.53,6.351-2.156c3.255-0.951,7.988-2.479,12.621-3.019C315.506,14.305,320.878,16.689,322.985,22.474z"/>
					</g>
					<g>
						<path style="fill:#FFE8D7;" d="M296.534,19.48c1.179,13.096,2.357,26.192,3.536,39.289c0.044,0.44,0.081,0.903,0.126,1.343        c-7.446-4.87-14.425-10.498-20.292-17.158c-1.972-2.267-3.93-4.929-3.82-7.936c0.08-2.992,2.253-5.547,4.688-7.286        C285.556,24.351,290.973,21.59,296.534,19.48z"/>
					</g>
					<g>
						<path style="fill:#3A003C;" d="M329.196,20.3c0.69,1.866,0.85,3.894,0.995,5.892c0.761,11.377,0.561,23.638-4.376,34.181        c-1.368,2.963-3.421,5.885-6.522,6.964c-2.165,0.76-4.431,0.461-6.615-0.283c1.384-17.536,2.344-35.146,2.828-52.749        C321.393,13.607,327.09,14.515,329.196,20.3z"/>
					</g>
				</g>
				<g>
					<path style="fill:#FFFDFC;" d="M282.452,32.211c2.748,0.544,5.598,0.116,8.314-0.574c2.846-0.723,5.881-1.954,7.198-4.578       c0.163-0.325,0.298-0.696,0.201-1.046c-0.165-0.595-0.88-0.82-1.491-0.901c-3.509-0.459-7.012,0.72-10.298,2.034       C284.878,27.746,276.865,31.105,282.452,32.211z"/>
				</g>
			</g>
		</g>
		<g>
			<g>
				<path style="fill:#CB7ED9;" d="M263.711,487.747c-0.119,3.26-1.94,2.275-2.702,5.44c-2.189,0.071-5.603,0.214-7.792,0.214      c-17.024,0-30.272,2.509-46.28-0.895c-53.374-11.349-100.78-40.777-134.295-81.376c0.571-4.711,1.832-9.304,4.473-13.206      c3.784-5.592,11.065-9.28,17.465-7.138c3.855,1.285,6.805,4.402,9.184,7.686c5.639,7.757,8.947,16.918,12.183,25.96      c-0.88-12.873,1.737-25.936,7.472-37.476c3.379-6.781,8.685-13.587,16.156-14.562c9.185-1.19,16.965,6.853,21.177,15.086      c5.568,10.826,7.876,23.009,9.446,35.097c1.666,12.73,2.546,25.555,3.426,38.356c5.782-10.803,14.205-20.439,25.056-26.198      c10.826-5.734,24.175-7.233,35.525-2.57c12.492,5.116,21.224,17.037,25.65,29.79C262.712,470.21,264.02,479.014,263.711,487.747      z"/>
			</g>
			<g>
				<path style="fill:#CB7ED9;" d="M493.445,260.012c0,67.576-28.22,128.56-73.501,171.795      c-9.756-14.919-16.585-31.765-19.916-49.278c-0.69-3.736-1.238-7.709,0.095-11.278c2.284-6.091,9.542-9.137,16.038-8.59      c6.496,0.547,12.373,3.878,17.965,7.233c-6.258-10.184-11.897-20.915-14.967-32.479c-3.045-11.564-3.426-24.08,0.666-35.335      c2.284-6.305,6.591-12.563,13.111-14.205c5.877-1.451,12.087,1.309,16.823,5.092c4.735,3.807,8.542,8.661,13.301,12.444      c-5.472-13.015-12.206-25.603-15.942-39.213c-3.759-13.61-4.259-28.839,2.403-41.283c6.662-12.468,21.915-20.891,35.358-16.561      c1.095,0.357,2.165,0.785,3.189,1.285v0.024C491.589,225.891,493.445,242.737,493.445,260.012z"/>
			</g>
			<g>
				<path style="fill:#FF6043;" d="M383.325,450.675c-0.333,3.831-1.07,7.567-2.165,11.183      c-34.621,21.558-75.19,34.43-118.686,35.596c-2.189,0.071-4.378,0.095-6.567,0.095c-16.775,0-33.169-1.737-48.969-5.044      c0.452-4.759,1.642-9.446,3.569-13.848c2.308-5.259,6.401-10.541,12.135-11.041c7.4-0.666,12.754,6.686,16.466,13.158      c-6.21-20.987-3.736-44.376,6.71-63.602c4.14-7.662,9.708-14.848,17.251-19.226c7.543-4.402,17.298-5.592,25.008-1.523      c6.52,3.426,10.731,9.994,13.967,16.608c6.115,12.421,9.779,26.031,10.731,39.832c4.426-11.921,10.469-23.723,20.415-31.623      c9.946-7.9,24.579-10.993,35.572-4.592C380.018,423.193,384.467,437.707,383.325,450.675z"/>
			</g>
		</g>
	</g>
</g>















</svg>
