<?xml version="1.0" encoding="UTF-8"?>
<!-- Generator: Adobe Illustrator 25.2.1, SVG Export Plug-In . SVG Version: 6.00 Build 0)  -->
<svg xmlns="http://www.w3.org/2000/svg" xmlns:xlink="http://www.w3.org/1999/xlink" version="1.1" id="Capa_1" x="0px" y="0px" viewBox="0 0 512 512" style="enable-background:new 0 0 512 512;" xml:space="preserve" width="512" height="512">
<g>
	<path style="fill:#FFFFFF;" d="M446.139,350.367c-0.821-17.47-4.806-34.242-11.528-48.5c-5.493-11.659-13.825-21.755-24.764-30.01   c-0.029-0.02-0.058-0.043-0.085-0.064c-18.83-14.176-42.879-21.074-63.946-26.426c-6.189-1.571-12.831-2.642-19.738-3.172   c-0.997-0.076-2.004-0.141-3.025-0.195c1.314-6.421,2.741-13.33,4.309-20.742c4.566-2.819,10.211-3.749,18.61-4.939   c4.904-0.696,10.463-1.484,16.14-3.007c12.078-3.239,27.279-11.702,33.72-25.743c4.15-9.042,3.968-19.145-0.497-28.427   c-0.498-1.033-0.999-1.982-1.531-2.894c-0.033-0.059-0.068-0.119-0.103-0.176c-0.208-0.35-0.424-0.691-0.661-1.045   c6.693-4.669,12.742-10.301,17.816-16.665c9.633-12.071,11.637-28.112,5.128-40.829c-0.263-0.52-0.555-1.029-0.926-1.655   c-0.012-0.021-0.099-0.169-0.114-0.19c-0.199-0.341-0.402-0.678-0.583-0.957c-0.422-0.657-0.866-1.302-1.37-1.982   c-2.269-3.042-5.004-5.679-8.134-7.84c-2.806-1.939-6.081-3.537-9.787-4.786c3.669-8.755,6.352-17.922,6.739-27.055   c0.166-3.935-0.066-7.507-0.709-10.93c-4.173-22.158-18.268-38.054-36.785-41.486c-0.777-0.144-1.556-0.265-2.33-0.362   c-15.892-1.994-37.261,6.054-49.18,28.541c-1.097,2.074-2.126,4.293-3.057,6.596c-3.102,7.677-4.817,15.741-5.868,23.49   c-4.015,0.13-8.044,0.914-11.845,2.311c-1.742-0.505-3.535-0.874-5.371-1.104l-0.451-0.052c-3.395-0.386-7.042-0.25-10.897,0.399   c-1.273-13.439-4.644-26.428-12.617-36.328c-9.375-11.642-21.964-19.223-34.539-20.801c-5.929-0.744-11.808-0.206-17.476,1.6   c-19,6.058-32.199,26.269-32.098,49.122c0.001,0.327,0.011,0.652,0.023,0.914c0.028,1.584,0.115,3.218,0.257,4.857   c0.768,8.807,3.166,17.237,6.061,25.001c-1.039,0.596-2.055,1.248-3.04,1.954c-1.056-0.128-2.12-0.209-3.194-0.244   c-5.504-0.165-10.838,0.871-15.645,2.889c-4.084-6.492-8.879-12.995-14.734-18.631c-0.026-0.026-0.052-0.055-0.079-0.082   c-0.134-0.131-0.282-0.273-0.428-0.408c-0.459-0.428-0.937-0.842-1.419-1.25l-0.794-0.697c-0.673-0.602-1.35-1.199-2.058-1.769   c-0.089-0.071-0.179-0.143-0.272-0.212c-0.258-0.221-0.523-0.439-0.801-0.654c-7.987-6.156-17.763-10.22-27.526-11.445   c-11.549-1.449-22.275,1.015-31.017,7.124c-15.436,10.787-21.687,31.095-16.314,52.984c0.827,3.375,2.095,6.728,3.882,10.253   c0.832,1.643,1.734,3.237,2.678,4.731c3.957,6.277,9.084,11.957,14.648,17.109c-2.854,2.666-5.169,5.475-6.919,8.398   c-1.956,3.262-3.358,6.8-4.164,10.519c-0.171,0.788-0.311,1.569-0.405,2.235c-0.059,0.383-0.107,0.764-0.158,1.241   c-0.008,0.078-0.031,0.301-0.042,0.38c-0.061,0.569-0.113,1.141-0.138,1.687c-0.662,14.309,7.802,28.081,21.565,35.084   c7.306,3.716,15.061,6.338,23.113,7.819c-0.066,0.405-0.124,0.819-0.173,1.258c-0.121,1.163-0.183,2.283-0.208,3.398   c-0.414,19.101,13.344,33.202,35.048,35.926c5.776,0.725,11.869,0.604,17.617-0.353c5.8-0.963,11.186-2.546,15.938-3.944   c7.148-2.103,13.324-3.918,18.957-3.211c0.008,0.001,0.019,0.002,0.027,0.003c4.373,5.931,8.429,11.487,12.195,16.664   c-12.073,5.16-23.017,11.741-32.602,19.62l-0.442,0.368c-1.512,1.256-3.011,2.568-4.568,3.998l-0.357,0.326   c-3.276,3.056-6.316,6.247-9.002,9.448c-0.164,0.191-0.322,0.388-0.386,0.473c-1.171,1.415-2.342,2.91-3.455,4.412   c-0.285,0.384-0.563,0.775-0.839,1.166l-0.232,0.327c-0.875,1.236-1.723,2.488-2.522,3.735c-0.381,0.592-0.759,1.189-1.125,1.787   c-0.443,0.726-0.88,1.453-1.292,2.175c-0.239,0.419-0.47,0.842-0.699,1.266l-0.481,0.88c-0.23,0.412-0.455,0.824-0.626,1.155   c-0.098,0.178-0.231,0.425-0.299,0.558c-0.929,1.818-1.785,3.641-2.552,5.427c-2.708,6.328-4.741,13.146-6.04,20.253   c-0.313,1.705-0.581,3.415-0.81,5.134c-0.226,1.703-0.414,3.415-0.56,5.123c-1.098,12.748-0.175,26.317,2.811,41.463l0.109,0.535   c0.502,2.517,1.039,5.023,1.628,7.51c2.211,9.313,4.994,18,8.27,25.821c4.73,11.294,10.599,21.043,17.447,28.976   c6.749,7.818,14.547,13.995,23.177,18.356c8.401,4.245,18.066,7.009,29.552,8.451l0.457,0.057   c4.992,0.608,10.251,0.985,17.04,1.223c2.283,0.081,4.569,0.143,6.859,0.206l3.725,0.105c6.622,0.202,12.133,0.472,17.497,1.144   c3.77,0.473,7.11,1.106,10.218,1.937c1.733,0.461,3.507,1.048,5.29,1.749c0.333,0.131,0.664,0.267,0.965,0.394   c4.215,1.771,7.801,3.977,10.667,6.568c0.416,0.379,0.823,0.769,1.203,1.155c1.897,1.938,3.37,4.046,4.374,6.264   c0.002,0.002,0.003,0.007,0.005,0.009c2.245,4.952,6.836,8.1,11.862,8.731c2.666,0.335,5.457-0.04,8.083-1.232   c7.032-3.188,10.433-11.106,8.143-18.286c0.01-0.081,0.024-0.171,0.038-0.271c0.061-0.365,0.135-0.742,0.227-1.128   c1.326-5.652,5.552-13.329,7.413-15.625c1.076-1.327,2.834-2.738,5.215-4.189c0.908-0.551,1.843-1.076,2.8-1.579   c1.362-0.719,2.917-1.478,4.878-2.382c1.207-0.554,2.413-1.094,3.556-1.605l1.908-0.849c1.295-0.579,2.569-1.153,3.785-1.725   c1.686-0.788,3.377-1.57,5.081-2.348l2.578-1.179c11.789-5.384,23.977-10.951,35.313-18.949   c16.384-11.567,22.212-28.187,26.394-42.87c0.426-1.506,0.822-3.035,1.175-4.487c3.383-13.567,4.848-28.192,4.237-42.305   C446.151,350.706,446.145,350.536,446.139,350.367z"/>
	<g>
		<path style="fill:#1C9E5F;" d="M358.209,198.757c-15.801,4.237-31.828,1.911-44.677,14.255    c-3.143-11.579-12.243-21.932-21.079-29.912c-6.317-5.705-13.364-9.923-18.366-16.992c-5.451-7.703-7.654-18.356-3.232-26.691    c4.423-8.336,2.531-22.833,9.841-16.866c-6.125-7.754,2.805-6.036,1.245-15.794c-1.56-9.758,0.995-20.554,8.308-27.2    c7.313-6.646,19.681-7.785,27.006-1.153c0.951-14.564,2.038-29.628,8.873-42.524c6.836-12.896,21.092-23.066,35.442-20.407    c14.248,2.64,22.234,16.258,24.72,29.458c2.941,15.617-7.029,34.807-14.586,48.161c1.125-1.988,11.132-0.452,12.992-0.106    c3.874,0.722,8.32,2.062,11.601,4.327c11.092,7.656,10.261,22.27,2.779,31.649c-8.242,10.333-19.473,18.289-32.012,22.498    c5.396,3.059,10.528,6.957,13.676,12.301C390.979,181.144,373.291,194.712,358.209,198.757z"/>
		<g>
			<path style="fill:#1C9E5F;" d="M171.478,239.219c16.138-2.684,29.764-11.436,46.571-5.517     c-1.932-11.841,2.066-25.033,6.807-35.955c3.389-7.808,8.058-14.565,9.685-23.07c1.99-10.4-1.376-19.224-8.781-26.434     c-7.08-6.894-13.226-6.855-22.175-2.279c-0.725-7.296,1.169-15.036-0.762-22.063c-2.618-9.528-9.414-18.298-18.822-21.321     c-9.408-3.023-21.137,1.06-25.061,10.129c-6.894-12.864-14.119-26.127-25.679-35.036c-11.56-8.91-28.747-12.267-40.71-3.905     c-11.877,8.301-13.51,24.003-10.309,37.049c3.787,15.434,20.807,28.775,33.213,37.804c-1.847-1.344-10.321,4.196-11.871,5.282     c-3.228,2.261-6.72,5.322-8.77,8.741c-6.928,11.561-0.122,24.52,10.571,29.961c11.78,5.994,25.297,8.588,38.454,7.229     c-3.646,5.019-6.704,10.691-7.358,16.86C134.357,236.75,156.074,241.78,171.478,239.219z"/>
		</g>
		<g>
			<path style="fill:#202D7D;" d="M314.478,188.444c0.727-0.605-10.839-15.698-25.833-33.71     c-5.739-6.894-11.141-13.206-15.673-18.351c-0.648,0.735-1.215,1.534-1.717,2.373c4.155,5.273,9.219,11.519,14.756,18.17     C301.005,174.939,313.751,189.05,314.478,188.444z"/>
			<path style="fill:#202D7D;" d="M327.646,183.404c-9.012,3.476-14.561,5.734-14.408,6.195c0.145,0.438,5.968-1.008,15.209-3.907     c9.24-2.897,21.882-7.295,35.63-12.717c6.277-2.479,12.214-4.951,17.671-7.311c-0.302-0.629-0.63-1.261-1.007-1.9     c-0.183-0.312-0.396-0.602-0.592-0.903c-5.395,2.176-11.215,4.51-17.331,6.926C349.12,175.189,336.66,179.93,327.646,183.404z"/>
			<path style="fill:#202D7D;" d="M327.344,133.053c0.809-0.415-7.615-18.236-20.45-38.846c-4.113-6.632-8.162-12.715-11.798-17.916     c-0.898,0.441-1.757,0.95-2.582,1.51c3.412,5.369,7.341,11.561,11.468,18.216C316.741,116.503,326.473,133.512,327.344,133.053z"/>
			<path style="fill:#202D7D;" d="M378.271,112.115c-14.086,6.185-27.016,11.371-36.409,15.069     c-9.39,3.702-15.214,6.004-15.06,6.475c0.14,0.429,6.239-1.062,15.881-4.195c9.641-3.128,22.795-7.989,36.967-14.211     c8.367-3.682,16.117-7.416,22.9-10.89c-0.461-0.901-1.017-1.766-1.64-2.602C394.129,104.969,386.471,108.507,378.271,112.115z"/>
			<path style="fill:#202D7D;" d="M342.253,80.937c0.88-0.402-5.284-15.702-12.799-34.578c-1.322-3.306-2.593-6.494-3.804-9.519     c-0.701,1.391-1.349,2.801-1.929,4.237c0.807,2.13,1.656,4.317,2.549,6.552C333.821,66.594,341.412,81.325,342.253,80.937z"/>
			<path style="fill:#202D7D;" d="M342.371,82.685c0.51,0.798,15.431-7.833,33.326-19.276c3.776-2.414,7.365-4.752,10.701-6.959     c0.184-1.349,0.297-2.685,0.354-4.012c-3.983,2.44-8.343,5.169-12.901,8.083C355.955,71.965,341.861,81.888,342.371,82.685z"/>
		</g>
		<g>
			<path style="fill:#202D7D;" d="M207.018,211.73c0.913,0.25,6.674-17.871,12.868-40.474c2.287-8.347,4.311-16.128,5.911-22.648     c-0.804-0.557-1.651-1.049-2.545-1.45c-1.996,6.559-4.301,14.541-6.671,23.192C210.386,192.953,206.105,211.48,207.018,211.73z"/>
			<path style="fill:#202D7D;" d="M193.163,215.006c9.612-1.186,15.512-2.28,15.462-2.738c-0.052-0.483-6.038-0.242-15.68,0.325     c-9.643,0.568-22.949,1.41-37.655,2.162c-6.567,0.333-12.831,0.617-18.643,0.869c-0.054,0.356-0.127,0.708-0.165,1.068     c-0.078,0.738-0.115,1.449-0.13,2.146c5.945-0.111,12.372-0.318,19.112-0.66C170.224,217.423,183.553,216.194,193.163,215.006z"/>
			<path style="fill:#202D7D;" d="M172.378,166.632c0.982,0.057,2.8-19.454,5.935-43.385c1.002-7.766,2.016-15.029,2.9-21.329     c-0.983-0.168-1.976-0.275-2.975-0.306c-1.156,6.239-2.325,13.453-3.323,21.193C171.762,146.88,171.47,166.59,172.378,166.632z"/>
			<path style="fill:#202D7D;" d="M156.928,169.716c10.075-1.139,16.244-2.307,16.193-2.755c-0.055-0.492-6.309-0.177-16.389,0.34     c-10.081,0.521-23.998,1.153-39.381,1.353c-8.958,0.11-17.393,0.058-24.894-0.054c-0.221,1.019-0.37,2.036-0.416,3.048     c7.613,0.354,16.214,0.546,25.354,0.434C132.871,171.879,146.857,170.858,156.928,169.716z"/>
			<path style="fill:#202D7D;" d="M137.233,125.362c0.925,0.005,1.738-16.546,0.762-36.937c-0.112-2.404-0.245-4.747-0.392-7.02     c-1.122-1.067-2.295-2.083-3.509-3.058c0.15,3.254,0.312,6.683,0.477,10.24C135.543,108.881,136.266,125.36,137.233,125.362z"/>
			<path style="fill:#202D7D;" d="M137.849,127.002c0.134-0.937-16.803-4.136-37.831-7.145c-5.356-0.766-10.454-1.445-15.09-2.018     c0.6,1.184,1.257,2.354,1.982,3.505c3.951,0.629,8.185,1.271,12.621,1.906C120.56,126.259,137.715,127.939,137.849,127.002z"/>
		</g>
		<g>
			<path style="fill:#202D7D;" d="M350.863,62.129c-0.999-0.35-6.171,11.15-12.983,30.327     c-6.817,19.168-15.092,46.076-22.338,76.286c-7.221,30.215-12.031,57.952-14.634,78.129c-2.612,20.182-3.21,32.777-2.16,32.918     c2.331,0.309,10.117-49.213,24.572-109.184C337.595,110.588,353.081,62.91,350.863,62.129z"/>
		</g>
		<g>
			<path style="fill:#202D7D;" d="M121.61,111.805c-1.696,1.629,32.137,38.62,69.974,87.345     c37.983,48.609,65.57,90.465,67.564,89.22c0.897-0.562-4.86-11.781-15.592-29.072c-10.722-17.289-26.581-40.547-45.662-65.063     c-19.101-24.501-37.771-45.57-51.911-60.197C131.843,119.4,122.375,111.073,121.61,111.805z"/>
		</g>
		<g>
			<path style="fill:#CBD115;" d="M298.846,182.452c-11.928,11.197-27.154,16.714-32.651,33.663     c-8.238-8.722-21.148-13.552-32.706-16.413c-8.262-2.046-16.466-2.437-24.214-6.306c-8.442-4.217-15.415-12.566-15.452-22.002     c-0.011-2.783,0.766-5.532,2.09-8.002c0,0,4.577,0.509,4.866,0.065s-3.122-2.741-3.122-2.741     c3.449-4.442,8.794-7.262,14.292-6.188c-9.061-3.943-17.792-9.294-23.775-17.158c-5.929-7.793-8.764-18.401-5.597-27.653     c0.029-0.085,2.674-0.591,2.704-0.676c0.294-0.828-1.564-1.983-1.564-1.983c4.1-8.036,13.462-13.531,22.199-11.356     c-6.039-13.287-12.194-27.079-12.258-41.674c-0.064-14.595,7.7-30.292,21.606-34.724c13.806-4.401,27.276,3.832,35.7,14.294     c2.945,3.657,5.024,8.122,6.51,12.994c0.207,0.677-0.706,3.039-0.522,3.73c0.184,0.692,1.483-0.287,1.644,0.417     c2.451,10.671,2.473,22.652,2.253,32.2c0.053-2.284,9.599-5.655,11.402-6.228c3.756-1.193,8.308-2.111,12.27-1.664     c4.793,0.541,8.644,2.605,11.535,5.553c0.36,0.367-0.218,1.461,0.112,1.855c0.33,0.394,1.886,0.491,1.886,0.491     c3.71,5.188,5.06,12.163,3.862,18.687c-2.386,13-8.529,25.317-17.595,34.948c6.202,0.149,12.565,1.161,17.865,4.386     c2.615,1.591,4.621,3.409,6.104,5.385c0,0-1.197,2.849-0.931,3.277c0.289,0.465,2.585-0.594,2.585-0.594     C315.303,159.86,307.747,174.098,298.846,182.452z"/>
		</g>
		<g>
			<path style="fill:#202D7D;" d="M235.578,76.369c0.079-0.126,0.166-0.264,0.251-0.398c-4.283-12.439-7.387-19.549-8.155-19.306     c-0.752,0.236,0.445,6.283,2.866,16.649C232.869,74.625,234.584,75.663,235.578,76.369z"/>
			<path style="fill:#1C9E5F;" d="M263.233,180.824c0.114,0.565,0.225,1.126,0.338,1.689c6.169-3.54,18.395-11.574,31.844-21.894     c5.299-4.051,10.188-8.002,14.505-11.627c-0.452-0.906-1-1.787-1.64-2.64c-4.509,3.505-9.56,7.426-14.949,11.546     C280.391,167.827,268.959,176.251,263.233,180.824z"/>
			<path style="fill:#202D7D;" d="M262.339,182.341c-0.029,0.112-0.39,0.137-1.048,0.079c-1.336,1.134-2.053,1.857-1.932,2.038     c0.145,0.222,1.683-0.494,4.213-1.946c-0.113-0.563-0.224-1.123-0.338-1.689c-0.505,0.403-0.96,0.773-1.373,1.114     C262.197,182.116,262.362,182.251,262.339,182.341z"/>
			<path style="fill:#1C9E5F;" d="M280.939,95.08c-13.507,13.149-24.926,24.794-30.307,30.806c0.143,0.553,0.286,1.115,0.429,1.673     c5.926-4.948,18.257-16.382,32.269-30.022c5.315-5.174,10.29-10.101,14.723-14.563c-0.602-0.844-1.271-1.633-1.997-2.373     C291.434,84.95,286.317,89.844,280.939,95.08z"/>
			<path style="fill:#1C9E5F;" d="M235.829,75.971c0.088,0.257,0.179,0.523,0.268,0.784c0.341,0.278,0.523,0.482,0.477,0.579     c-0.025,0.053-0.112,0.075-0.255,0.069c0.018,0.053,0.035,0.104,0.053,0.157c3.821-3.901,12.08-13.806,21.32-25.686     c0.303-0.39,0.596-0.77,0.895-1.156c-0.323-1.404-0.702-2.776-1.114-4.126c-0.82,1.043-1.648,2.1-2.486,3.178     C246.221,61.039,238.978,70.994,235.829,75.971z"/>
			<path style="fill:#1C9E5F;" d="M236.097,76.755c-0.089-0.261-0.18-0.528-0.268-0.784c-0.085,0.134-0.172,0.271-0.251,0.398     C235.776,76.509,235.959,76.643,236.097,76.755z"/>
			<path style="fill:#1C9E5F;" d="M248.341,179.787c2.609,0.634,4.917,1.16,6.873,1.573c-0.141-0.673-0.282-1.349-0.424-2.025     c-8.228-2.726-22.363-7.056-38.299-12.315c-6.734-2.208-13.092-4.352-18.835-6.304c-0.654,0.841-1.239,1.734-1.743,2.675     c5.877,2.217,12.467,4.567,19.507,6.884C228.138,174.456,239.817,177.719,248.341,179.787z"/>
			<path style="fill:#1C9E5F;" d="M243.309,127.037c-0.027-0.117-0.054-0.239-0.081-0.356c-0.143-0.616-0.282-1.214-0.424-1.824     c-7.624-3.028-20.372-7.48-35.103-11.664c-8.799-2.515-17.042-4.573-23.986-6.135c-0.4,0.784-0.768,1.584-1.063,2.413     c-0.029,0.081-0.049,0.165-0.076,0.246c6.921,1.923,15.248,4.217,24.186,6.772C222.147,120.859,235.568,124.924,243.309,127.037z     "/>
			<path style="fill:#1C9E5F;" d="M250.309,128.461c0.015-0.041-0.053-0.11-0.123-0.18c-0.113,0.092-0.216,0.173-0.322,0.258     C250.108,128.548,250.283,128.532,250.309,128.461z"/>
			<path style="fill:#1C9E5F;" d="M231.093,75.664c-0.189-0.801-0.376-1.594-0.553-2.35c-6.174-3.476-16.508-8.799-28.36-14.538     c-2.93-1.418-5.768-2.771-8.503-4.059c0.022,1.277,0.092,2.547,0.203,3.812c2.198,1.088,4.472,2.201,6.807,3.332     C213.441,68.037,224.719,73.129,231.093,75.664z"/>
			<g>
				<path style="fill:#202D7D;" d="M260.905,169.546c-3.176-14.892-6.528-29.043-9.844-41.988c-0.143-0.558-0.286-1.12-0.429-1.673      c-0.082-0.318-0.164-0.644-0.246-0.961c-3.579-13.633-7.074-25.84-10.296-36.003c-1.307-4.143-2.55-7.929-3.717-11.362      c-0.018-0.053-0.035-0.104-0.053-0.157c-0.236-0.009-0.665-0.115-1.201-0.275c-0.932-0.279-2.295-0.776-4.025-1.464      c1.018,4.311,2.211,9.25,3.547,14.77c2.398,9.842,5.162,21.504,8.164,34.423c0.142,0.61,0.281,1.208,0.424,1.824      c0.027,0.117,0.054,0.239,0.081,0.356c3.101,13.571,6.426,28.484,9.772,44.172c0.579,2.734,1.147,5.438,1.709,8.126      c0.142,0.676,0.283,1.352,0.424,2.025c2.223,10.654,4.313,20.9,6.26,30.536c3.102,15.352,5.846,29.161,8.186,40.567      c4.265,20.816,7.262,33.653,8.371,33.477c1.072-0.17,0.049-13.323-2.796-34.426c-1.575-11.654-3.73-25.742-6.476-41.374      c-1.541-8.772-3.27-18.032-5.189-27.628c-2.529,1.452-4.068,2.168-4.213,1.946c-0.121-0.181,0.597-0.904,1.932-2.038      c0.658,0.058,1.019,0.033,1.048-0.079c0.023-0.09-0.142-0.225-0.479-0.403c0.413-0.341,0.868-0.711,1.373-1.114      C262.485,177.109,261.71,173.349,260.905,169.546z"/>
				<path style="fill:#202D7D;" d="M235.578,76.369c-0.994-0.705-2.71-1.743-5.038-3.054c0.176,0.756,0.363,1.548,0.553,2.35      c1.73,0.688,3.093,1.185,4.025,1.464C235.259,76.89,235.408,76.642,235.578,76.369z"/>
			</g>
			<path style="fill:#1C9E5F;" d="M236.574,77.334c0.047-0.096-0.135-0.301-0.477-0.579c0.074,0.216,0.147,0.429,0.222,0.648     C236.462,77.409,236.549,77.387,236.574,77.334z"/>
			<path style="fill:#1C9E5F;" d="M235.118,77.128c0.536,0.16,0.965,0.266,1.201,0.275c-0.075-0.219-0.148-0.432-0.222-0.648     c-0.138-0.113-0.321-0.246-0.519-0.387C235.408,76.642,235.259,76.89,235.118,77.128z"/>
		</g>
		<g>
			<path style="fill:#CE2806;" d="M324.921,257.222c-32.085-2.469-68.379,8.054-96.294,19.546     c-23.518,9.682-45.179,26.497-55.184,49.88c-9.425,22.025-7.586,47.298-2.055,70.608c5.99,25.242,17.875,51.483,41.029,63.184     c12.473,6.304,26.821,7.628,40.788,8.119c13.967,0.491,28.141,0.284,41.643,3.892c13.502,3.607,26.581,11.744,32.344,24.476     c-3.412-7.538,5.73-25.388,10.333-31.07c6.452-7.966,18.251-12.176,27.459-16.491c13.812-6.473,28.145-12.3,40.673-21.142     c11.944-8.43,16.632-20.781,20.587-34.674c7.73-27.153,6.876-59.501-5.264-85.258c-14.345-30.435-48.703-40.651-78.876-48.317     C336.57,258.568,330.816,257.676,324.921,257.222z"/>
		</g>
		<g>
			<g>
				<g>
					<path style="fill:#FA3E00;" d="M249.843,421.467c-10.112,2.026-18.46,2.917-18.646,1.989c-0.186-0.928,7.861-3.323,17.972-5.35       c10.112-2.027,18.461-2.917,18.647-1.989C268.002,417.045,259.956,419.441,249.843,421.467z M290.552,275.697       c11.023-2.595,20.134-3.952,20.351-3.031c0.217,0.921-8.543,3.772-19.565,6.367c-11.022,2.595-20.134,3.952-20.351,3.031       C270.77,281.143,279.53,278.292,290.552,275.697z M328.725,431.004c-14.309,4.75-26.559,5.782-26.67,4.893       c-0.159-0.984,11.602-3.497,25.596-8.148c14.017-4.585,24.966-9.559,25.424-8.673       C353.514,419.857,343.053,426.313,328.725,431.004z"/>
				</g>
			</g>
			<path style="fill:#FA3E00;" d="M224.867,311.279c-0.268-0.954-14.803,2.461-32.924,5.406c-5.247,0.87-10.203,1.602-14.621,2.233     c-0.609,1.063-1.206,2.134-1.764,3.228c4.988-0.398,10.771-1.057,16.94-2.078C210.846,317.084,225.13,312.142,224.867,311.279z"/>
			<path style="fill:#FA3E00;" d="M350.126,294.57c-15.605,3.313-29.835,5.806-40.16,7.525c-10.324,1.724-16.731,2.775-16.679,3.27     c0.046,0.447,6.554,0.247,17.009-0.869c10.452-1.11,24.841-3.24,40.543-6.574c15.7-3.347,29.709-7.26,39.708-10.501     c4.147-1.342,7.596-2.548,10.22-3.535c-0.531-0.401-1.069-0.795-1.611-1.184c-2.536,0.638-5.658,1.45-9.285,2.391     C379.741,287.727,365.728,291.243,350.126,294.57z"/>
			<path style="fill:#FA3E00;" d="M291.338,279.034c11.022-2.595,19.782-5.446,19.565-6.367c-0.217-0.922-9.328,0.436-20.351,3.031     c-11.022,2.595-19.782,5.446-19.565,6.368C271.204,282.986,280.315,281.629,291.338,279.034z"/>
			<path style="fill:#FA3E00;" d="M216.197,390.234c15.8-1.845,29.918-4.814,39.967-7.521c10.057-2.702,16.087-4.983,15.965-5.4     c-0.141-0.492-6.395,0.96-16.52,3.041c-10.124,2.087-24.164,4.649-39.807,6.475c-15.645,1.805-29.898,2.529-40.231,2.817     c-2.104,0.06-4.035,0.108-5.794,0.152c0.134,0.682,0.271,1.363,0.412,2.042c1.645,0.09,3.443,0.169,5.382,0.23     C185.972,392.402,200.395,392.058,216.197,390.234z"/>
			<path style="fill:#FA3E00;" d="M249.17,418.106c-10.112,2.026-18.159,4.422-17.972,5.35c0.186,0.928,8.534,0.038,18.646-1.989     c10.112-2.027,18.159-4.422,17.973-5.35C267.63,415.189,259.282,416.08,249.17,418.106z"/>
			<path style="fill:#FA3E00;" d="M414.729,356.867c-11.345,4.404-27.146,10.131-44.936,15.383     c-17.797,5.229-34.179,8.981-46.099,11.43c-11.919,2.456-19.352,3.784-19.284,4.295c0.055,0.427,7.617-0.052,19.716-1.91     c12.094-1.85,28.699-5.256,46.636-10.527c17.931-5.294,33.731-11.432,44.897-16.433c7.316-3.272,12.661-5.978,15.438-7.571     c-0.014-0.328-0.014-0.657-0.031-0.985C428.151,351.568,422.46,353.872,414.729,356.867z"/>
			<path style="fill:#FA3E00;" d="M327.651,427.749c-13.994,4.651-25.755,7.164-25.596,8.148c0.111,0.889,12.36-0.142,26.67-4.893     c14.329-4.692,24.79-11.148,24.35-11.929C352.617,418.19,341.668,423.164,327.651,427.749z"/>
		</g>
		<g>
			<path style="fill:#202D7D;" d="M262.617,343.516c1.748,7.545-0.117,14.421-4.166,15.36c-4.049,0.939-8.75-4.417-10.498-11.961     c-1.749-7.545,0.116-14.421,4.166-15.36C256.168,330.616,260.868,335.971,262.617,343.516z"/>
			<path style="fill:#202D7D;" d="M348.262,323.835c1.749,7.545-0.117,14.421-4.166,15.36c-4.049,0.938-8.749-4.417-10.498-11.962     c-1.749-7.544,0.117-14.421,4.166-15.36C341.813,310.935,346.514,316.29,348.262,323.835z"/>
			<g>
				<path style="fill:#202D7D;" d="M318.995,326.187c-0.713,0.096-0.147,4.471-1.696,11.013c-0.786,3.246-2.165,7.007-4.506,10.666      c-2.301,3.61-5.678,7.178-10.075,8.21c-4.419,1.083-9.149-0.304-12.751-2.433c-3.627-2.13-6.367-5.148-8.485-7.765      c-2.121-2.654-3.686-5.006-4.867-6.577c-1.172-1.581-1.937-2.407-2.218-2.258c-0.276,0.146-0.047,1.248,0.657,3.112      c0.717,1.857,1.874,4.504,3.79,7.59c1.937,3.048,4.629,6.644,8.892,9.47c2.103,1.394,4.553,2.53,7.279,3.21      c2.719,0.659,5.768,0.841,8.786,0.092c3.044-0.705,5.694-2.361,7.742-4.256c2.063-1.913,3.629-4.068,4.853-6.215      c2.456-4.299,3.647-8.635,4.084-12.278C321.308,330.39,319.501,326.042,318.995,326.187z"/>
			</g>
		</g>
	</g>
</g>















</svg>
