<?xml version="1.0" encoding="UTF-8"?>
<!-- Generator: Adobe Illustrator 25.2.3, SVG Export Plug-In . SVG Version: 6.00 Build 0)  -->
<svg xmlns="http://www.w3.org/2000/svg" xmlns:xlink="http://www.w3.org/1999/xlink" version="1.1" id="Capa_1" x="0px" y="0px" viewBox="0 0 512 512" style="enable-background:new 0 0 512 512;" xml:space="preserve" width="512" height="512">
<g>
	<path style="fill:#FFC893;" d="M417.908,416.676c0,17.026-77.017,30.841-172.03,30.841c-41.249,0-79.101-2.611-108.742-6.95   c7.527-2.084,12.344-5.32,12.344-8.936c0-6.325-14.734-11.449-32.901-11.449c-14.379,0-26.6,3.199-31.074,7.674   c-7.527-3.469-11.657-7.232-11.657-11.179c0-17.039,77.017-30.841,172.03-30.841S417.908,399.637,417.908,416.676z"/>
	<path style="fill:#FFC893;" d="M142.623,166.417c-0.128,0.029-44.111-90.208-50.444-89.072   c-6.333,1.136,20.408,98.092,21.463,98.522C114.698,176.299,142.623,166.417,142.623,166.417z"/>
	<path style="fill:#9CF0E7;" d="M286.572,115.236c0,0,6.483-37.234,48.829-37.447c42.346-0.212,51.149,39.953,51.149,39.953   s3.719-11.785,13.139-11.67c9.42,0.115,13.271,18.255,13.271,18.255s10.454-10.987,33.563-5.485   C469.633,124.345,512,133.345,512,133.345H239.036L286.572,115.236z"/>
	<path style="fill:#6CE1C1;" d="M482.337,254.467c-33.692,10.067-37.418-22.56-52.291-18.803   c-14.873,3.758-18.067,31.531-18.067,31.531l-4.227-7.984l-14.497-27.414c0,0,3.178-40.236,34.161-43.43   c30.968-3.194,34.161,25.222,49.175,26.333c14.998,1.128,17.237-17.581,17.237-17.581s0.329,0.877,0.845,2.442   C497.899,209.487,508.154,246.748,482.337,254.467z"/>
	<path style="fill:#FF5555;" d="M338.443,385.241c-0.517,0.157-1.018,0.298-1.534,0.438c-13.433,3.742-23.046,3.554-29.605,0.392   c-22.842-11.006-8.94-57.849,9.049-99.243c9.487-21.793,20.102-42.068,27.085-54.827c4.665-8.517,7.703-13.683,7.703-13.683   c0.266,0.752,69.199,8.611,88.394,45.324C458.634,300.182,438.219,356.888,338.443,385.241z"/>
	<path style="fill:#FF9D3D;" d="M346.919,239.333c0,0,16.871-8.012,16.879-18.997c0.008-10.985-23.804-44.611-13.656-70.816   c11.5-29.696,43.302-52.551,55.019-40.817c11.717,11.735-20.536,25.914-30.41,40.817c-17.492,26.403-2.674,42.255,3.874,57.763   c6.548,15.508,6.286,40.205-22.035,54.206C334.845,272.239,346.919,239.333,346.919,239.333z"/>
	<path style="opacity:0.2;fill:#AE312F;" d="M399.768,126.385c-0.235,0.219-0.47,0.438-0.72,0.658   c-5.245,4.728-11.945,9.644-17.362,14.685c-2.771,2.567-5.198,5.167-6.936,7.797c-10.458,15.781-9.362,27.805-5.386,38.232   c2.662,6.998,6.638,13.292,9.268,19.523c1.91,4.525,3.241,9.848,3.46,15.453c0.298,7.734-1.503,16-6.842,23.531v0.016   c-4.008,5.699-10.035,10.943-18.662,15.217c-21.746,10.74-9.675-22.169-9.675-22.169s16.877-8,16.877-18.991   c0-4.133-3.35-11.46-7.014-20.384c-6.074-14.826-12.963-34.067-6.638-50.428c4.728-12.227,12.901-23.28,21.699-31.234   c1.346-1.221,2.708-2.364,4.071-3.429c0.109-0.078,0.219-0.172,0.329-0.251c11.272-8.752,22.826-12.008,28.917-5.902   C410.57,114.126,406.594,120.075,399.768,126.385z"/>
	<path style="opacity:0.48;fill:#AE312F;" d="M381.685,141.728c-2.771,2.567-5.198,5.167-6.936,7.797   c-10.458,15.781-9.362,27.805-5.386,38.232c-4.43,4.978-9.221,9.315-12.587,12.196c-6.074-14.826-12.963-34.067-6.638-50.428   c4.728-12.227,12.901-23.28,21.699-31.234c1.346-1.221,2.708-2.364,4.071-3.429C378.773,122.643,380.746,132.318,381.685,141.728z"/>
	<path style="fill:#FF9D3D;" d="M373.512,148.115c-5.561,106.019-178.394,56.92-199.506,33.613   c-13.374-19.112-12.233-59.872,4.027-81.38c12.784-19.356,37.773-28.485,63.608-29.167   C294.745,70.127,380.371,82.591,373.512,148.115z"/>
	<g>
		<path style="fill:#FFFFFF;" d="M316.791,162.722c-7.53,4.305-18.85,5.026-26.693,1.221c-1.675-0.814-3.21-1.863-4.556-3.178    c-5.824-5.746-8.611-15.233-7.984-23.327c0-0.188,0.016-0.376,0.031-0.564c0.783-8.157,6.059-15.17,13.496-18.505    c8.705-3.898,21.245-4.446,28.431,2.724c2.834,2.834,4.947,6.623,6.231,10.803h0.016    C329.222,143.027,326.873,156.945,316.791,162.722z"/>
		<g>
			<path style="fill:#AE312F;" d="M315.916,163.141c-0.126,0.061-0.252,0.122-0.378,0.181     C315.664,163.262,315.791,163.202,315.916,163.141z"/>
			<path style="fill:#AE312F;" d="M326.124,131.427c0,0-0.002,0-0.002,0c-6.13-26.405-48.493-19.961-49.566,5.975     c-1.018,23.485,18.414,35.574,38.982,25.92c-10.223,4.853-24.908,4.435-31.801-5.434c-5.422-8.007-7.261-19.178-3.019-28.047     c8.544-17.433,39.454-18.425,44.592,2.2l-0.004-0.003c0.014,0.042,0.025,0.087,0.039,0.129c0.018,0.073,0.043,0.14,0.06,0.214     c0,0,0.004,0,0.005,0c3.424,10.488,1.641,24.383-8.637,30.322c-0.281,0.151-0.568,0.296-0.857,0.438     c0.292-0.141,0.583-0.269,0.875-0.418C327.317,156.612,329.316,142.291,326.124,131.427z"/>
			<path style="fill:#AE312F;" d="M276.554,137.438c0-0.012,0.002-0.024,0.002-0.036c0.001-0.014,0-0.027,0.001-0.041     L276.554,137.438z"/>
		</g>
	</g>
	<path style="fill:#AE312F;" d="M250.364,138.736c0,0-3.697-5.353-5.863-4.589c-2.167,0.765,3.389,8.867,5.684,9.759   c2.294,0.892,8.082-6.827,6.935-8.484C255.972,133.765,250.364,138.736,250.364,138.736z"/>
	<path style="fill:#AE312F;" d="M255.42,172.542c-2.186-9.586-4.313-19.648-5.375-29.43l1.156,0.162   c-3.125,9.11-6.147,18.305-8.151,27.74c1.198-10.598,4.576-20.825,7.964-30.896C251.729,150.588,254.105,162.104,255.42,172.542z"/>
	<path style="fill:#AE312F;" d="M300.151,159.601c6.469,0.947,13.695-1.523,17.586-6.936c6.2-8.625,3.56-22.098-5.538-27.488   c-4.885-2.894-11.56-3.52-16.835-1.337c-14.098,5.833-12.984,27.334-0.305,34.123C296.621,158.799,298.351,159.337,300.151,159.601   z"/>
	<g>
		<path style="fill:#FFFFFF;" d="M224.374,140.663c-3.617,6.591-11.883,9.096-18.928,8.846c-0.971-0.047-1.926-0.172-2.849-0.392    c-11.178-2.615-17.754-17.754-13.605-28.369c0.407-1.096,0.955-2.145,1.612-3.131c5.793-8.611,20.619-11.867,29.261-5.793    c2.082,1.487,3.429,3.851,4.384,6.168c0.658,1.581,1.206,3.35,1.612,5.213C227.176,129.046,227.066,135.763,224.374,140.663z"/>
		<path style="fill:#AE312F;" d="M224.374,140.663c-4.023,7.121-13.117,9.723-20.858,9.019c-8.34-1.27-14.289-8.794-16.191-16.687    c-1.328-5.361-0.796-11.501,2.377-16.163c6.595-9.059,20.407-11.849,29.83-5.914C227.333,116.666,228.645,132.461,224.374,140.663    z M224.358,140.672c3.622-7.147,2.508-15.892-0.646-22.978c-4.324-10.263-18.496-9.564-26.619-4.534    c-6.821,3.8-9.451,12.024-7.762,19.393c1.394,7.404,6.556,14.786,14.307,16.391C211.223,150.129,220.356,147.708,224.358,140.672z    "/>
	</g>
	<path style="fill:#AE312F;" d="M199.189,139.802c0.446,0.391,4.572,5.705,14.012,3.05c9.439-2.655,8.702-14.749,7.374-18.731   c-1.327-3.983-6.047-12.242-16.814-9.587C192.994,117.188,191.519,133.064,199.189,139.802z"/>
	<path style="fill:#FF9D3D;" d="M245.212,72.293c-0.485,0.282-8.344,4.838-16.533,7.953c-2.803,1.049-5.636,1.942-8.235,2.427   c-4.212,0.798-7.797,0.548-9.535-1.754c-0.752-1.002-1.393-2.302-1.926-3.836c-0.063-0.157-0.125-0.329-0.172-0.485   c-2.552-7.75-2.395-20.494,0.204-27.398c0.72-1.926,1.628-3.382,2.708-4.165c0.423-0.313,0.861-0.501,1.347-0.595   c7.703-1.409,14.122,2.959,18.239,8.908c2.834,4.086,4.759,9.081,8,12.885c0.25,0.282,2.348,2.787,3.992,4.493l0.391,0.391   C244.413,71.855,245.008,72.34,245.212,72.293z"/>
	<path style="fill:#6CE1C1;" d="M136.089,170.942c0,0-6.904,3.585-17.3,7.719c-8.877,3.523-20.321,7.452-32.189,9.848   c-6.231,1.268-12.572,2.113-18.709,2.254c-9.973,0.251-19.445-1.331-27.069-5.949c-31.249-18.928-15.985-51.539-10.239-50.788   l0.235,0.047c5.558,1.675,2.223,21.308,18.161,23.734c15.938,2.427,31.875-33.926,54.123-30.967   C125.334,129.813,136.089,170.942,136.089,170.942z"/>
	<path style="fill:#FF9D3D;" d="M365.81,111.418c-0.736-0.172-48.925-11.883-48.299-26.772c0.063-1.425,0.25-2.849,0.548-4.243   c2.771-13.339,15.249-24.909,20.713-24.533h0.016c6.028,0.423,8.126,13.558,11.664,23.766   C353.927,89.703,365.465,110.76,365.81,111.418z"/>
	<path style="fill:#FF9D3D;" d="M155.825,225.272c0,0,12.725-50.739,38.55-58.852c25.826-8.113,150.279,25.515,150.279,25.515   s16.899,46.906,19.088,79.735c2.189,32.829-60.604,55.153-60.604,55.153l-119.737-12.694l-27.577-51.213V225.272z"/>
	<path style="fill:#FF9D3D;" d="M268.132,388.617v20.497c0,0-7.716,6.656-8.321,12.03c-0.605,5.374,29.094,20.648,73.783,0   c0,0,5.604-10.022,5.374-44.124C338.739,342.919,268.132,388.617,268.132,388.617z"/>
	<path style="fill:#FF9D3D;" d="M180.293,391.728l3.96,14.991c0,0-8.768,5.318-8.768,11.031c0,2.828,35.356,14.991,55.155,2.263   c0,0,7.637-16.688,6.505-41.013C236.014,354.676,180.293,391.728,180.293,391.728z"/>
	<path style="fill:#FFC893;" d="M162.805,230.405c0,0,29.807-34.084,76.02-18.805c46.212,15.279,45.037,102.644,26.624,130.068   c-18.413,27.424-115.964-30.166-115.964-46.62C149.485,278.593,162.805,230.405,162.805,230.405z"/>
	<path style="fill:#FF5555;" d="M175.48,287.892L64.776,270.874c-2.975-0.313-5.809-0.736-8.517-1.252l-25.366-66.999l1.491-28.095   c24.83-3.961,59.9-7.578,78.029-8.11c28.588-0.83,52.009,4.869,55.172,15.186C168.748,191.921,175.48,287.892,175.48,287.892z"/>
	<path style="fill:#FF5555;" d="M404.355,347.729c-4.399,4.227-9.268,8.376-14.591,12.337c-5.01,3.757-10.411,7.327-16.204,10.661   c-10.349,5.949-22.185,10.771-35.116,14.513c-0.517,0.157-1.018,0.298-1.534,0.438c-1.066,0.297-2.1,0.56-3.118,0.808   c-21.082,5.578-44.78,8.423-69.463,8.632c-109.107,0.892-171.136-12.258-195.543-59.696c-9.206-17.895-12.305-42.381-12.525-65.802   c-0.376-37.872,6.763-72.894,7.593-72.503c1.346,0.626,111.627,90.773,111.627,90.773s61.935,15.688,113.052,6.278   c9.894-1.816,19.225-4.384,27.821-7.343c35.884-12.274,59.273-31.234,59.273-31.234s2.928,0.329,7.483,1.221   c14.404,2.771,45.152,10.975,51.634,31.077C438.594,299.853,428.058,324.965,404.355,347.729z"/>
	<path style="fill:#FF9D3D;" d="M362.459,325.388c-8.768,15.014-20.979,15.953-20.979,15.953   c-7.217,4.994-14.216,2.818-14.216,2.818c-9.863,0.611-8.282-11.272-9.221-25.973c-0.188-2.865-0.767-6.904-1.597-11.538   c-0.767-4.227-1.722-8.955-2.74-13.762c-3.632-16.893-8.172-34.662-8.172-34.662l-10.944-46.984l48.158-14.122   c9.723,21.824,16.235,44.479,19.977,64.738c0.579,3.209,1.112,6.356,1.55,9.425C368.048,296.879,367.125,317.388,362.459,325.388z"/>
	<path style="fill:#AE312F;" d="M316.531,307.159c-4.925-25.118-9.369-51.455-17.253-75.783   C308.775,255.559,313.152,281.499,316.531,307.159z"/>
	<path style="fill:#AE312F;" d="M324.827,344.014c1.36,0,2.552-0.575,3.453-1.408c0.904-0.842,1.587-1.912,2.134-3.061   c0.53-1.163,0.963-2.387,1.338-3.646c0.39-1.258,0.682-2.549,1.104-3.847c0.073,1.351,0.035,2.712-0.195,4.057   c-0.2,1.349-0.608,2.673-1.168,3.948c-0.617,1.245-1.449,2.455-2.642,3.282C327.694,344.175,326.11,344.523,324.827,344.014z"/>
	<path style="fill:#AE312F;" d="M338.975,342.803c1.037-0.498,1.635-1.417,2.08-2.353c0.432-0.954,0.694-1.989,0.894-3.044   c0.177-1.064,0.3-2.147,0.396-3.248c0.105-1.102,0.153-2.214,0.321-3.356c0.327,1.096,0.543,2.222,0.612,3.365   c0.094,1.142,0.018,2.299-0.153,3.45c-0.239,1.14-0.586,2.293-1.264,3.295C341.218,341.893,340.172,342.798,338.975,342.803z"/>
	<path style="fill:#AE312F;" d="M327.374,83.55c-5.182-2.145-9.112-3.084-9.315-3.147c2.771-13.339,15.249-24.909,20.713-24.533   h0.016c0.767,3.1,1.66,6.811-0.673,14.779c-0.235,0.783-0.407,1.55-0.548,2.301C335.422,84.082,332.306,85.601,327.374,83.55z"/>
	<path style="fill:#AE312F;" d="M214.448,75.268c-2.114,0.47-4.102,0.939-5.636,1.331c-2.552-7.75-2.395-20.494,0.204-27.398   c0.72-1.926,1.628-3.382,2.708-4.165c0,0,2.771,1.393,4.713,8.172c0.704,2.474,1.315,4.838,2.066,7.029   C220.287,65.42,221.336,73.702,214.448,75.268z"/>
	<path style="opacity:0.48;fill:#EB4949;" d="M292.95,169.016c-3.663,2.162-4.538,7.066-0.708,9.834   c5.128,3.706,15.296,3.799,20.356-0.104c4.273-3.295,2.251-9.974-2.051-11.441c-3.637-1.24-7.591-1.178-11.289-0.418   C297.539,167.241,295.003,167.805,292.95,169.016z"/>
	<path style="opacity:0.48;fill:#EB4949;" d="M206.944,153.508c3.038,2.976,2.715,7.947-1.667,9.717   c-5.866,2.371-15.76,0.027-19.74-4.973c-3.36-4.222,0.202-10.223,4.73-10.617c3.828-0.333,7.653,0.673,11.061,2.296   C202.913,150.686,205.24,151.841,206.944,153.508z"/>
	<path style="fill:#AE312F;" d="M306.285,254.612c0,0,9.013-8.171,19.575-10.544c12.552-2.82,19.112,4.025,17.717,7.876   c-1.395,3.851-22.624,3.119-34.15,16.287L306.285,254.612z"/>
	<path style="fill:#AE312F;" d="M287.222,73.762c-6.732,5.025-12.295,13.248-16.538,19.307c-2.333,3.319-4.493,6.763-6.529,10.27   c-1.534,2.63-4.133,5.166-7.374,5.354c-4.07,0.235-7.468-2.63-9.237-6.09c-2.223-4.321-1.926-9.237-0.845-13.84   c1.534-6.513,4.994-12.556,9.55-17.55c0.329,0.016,0.673,0.031,1.018,0.047C267.913,71.761,277.984,72.252,287.222,73.762z"/>
	<path style="fill:#AE312F;" d="M364.276,271.281c-0.892,0.125-1.816,0.078-2.709,0.016c-2.489-0.157-4.963-0.329-7.452-0.266   c-4.556,0.125-9.065,1.018-13.621,1.033c-1.738,0-3.961-0.501-4.243-2.223c-0.219-1.346,0.971-2.505,2.16-3.194   c1.754-1.018,3.726-1.597,5.683-2.114c4.932-1.284,9.989-2.129,15.077-2.536c1.08-0.078,2.317-0.188,3.554-0.141   C363.305,265.066,363.837,268.212,364.276,271.281z"/>
	<path style="fill:#AE312F;" d="M351.907,289.724c-0.016,1.44-0.783,2.803-1.816,3.805c-4.384,4.274-11.507,7.155-17.143,9.268   c-5.292,2.004-10.85,3.335-16.501,3.851c-0.767-4.227-1.722-8.955-2.74-13.762c1.252,0,2.38,0.016,3.288-0.047   c4.947-0.313,9.566-1.722,14.169-3.21c2.756-0.892,5.511-1.832,8.345-2.583C342.78,286.17,351.939,283.774,351.907,289.724z"/>
	<path style="fill:#AE312F;" d="M178.528,135.152c-4.368,0.36-8.736-1.44-12.54-3.898c0.078-0.407,0.437-2.933,0.514-3.344   c0.709-3.8,1.465-6.537,2.687-10.107C176.906,125.975,186.716,134.463,178.528,135.152z"/>
	<path style="fill:#AE312F;" d="M176.232,146.007c-2.975,1.456-7.327,1.346-11.398,0.705c-0.016-0.971-0.016-1.957,0-2.959   c0.047-2.192,0.188-4.446,0.454-6.763c0.016-0.094,0.016-0.173,0.031-0.266C173.555,139.729,181.477,143.439,176.232,146.007z"/>
	<path style="fill:#AE312F;" d="M178.765,115.379c-2.364-0.532-4.809-2.219-7.001-4.254c0.886-2.228,2.977-6.13,4.89-8.851   C180.959,109.491,184.245,116.616,178.765,115.379z"/>
	<path style="fill:#AE312F;" d="M307.909,77.563c-1.8,1.613-3.82,3.413-5.276,4.775c-4.603,4.321-9.566,10.474-12.869,10.897   c-6.904,0.892-9.049-5.965-4.039-12.321c2.286-2.896,5.276-4.869,7.859-6.168h0.016C298.609,75.559,303.368,76.498,307.909,77.563z   "/>
	<path style="fill:#AE312F;" d="M252.664,71.163c-3.914,4.196-8.298,11.369-11.977,12.246c-5.542,1.315-9.347-3.257-6.763-6.043   c2.505-2.709,5.307-4.744,7.718-6.184C245.18,71.041,248.765,70.987,252.664,71.163z"/>
	<path style="opacity:0.48;fill:#AE312F;" d="M307.905,208.7c4.493-1.343,9.035-2.641,13.346-4.475   c-0.432,0.842-1.003,1.851-1.223,2.767c-0.35,1.023,0.001,2.136,1.063,1.42c2.786-2.454,4.348-6.296,5.582-9.722   c1.179,6.169,3.363,9.422,6.464,1.737c4.737,0.315,9.662-0.388,14.05-2.286c-4.175,2.359-8.992,3.283-13.777,3.235l0.47-0.312   c-2.13,6.442-6.33,6.798-7.908-0.164l1.145,0.057c-1.306,2.782-3.414,8.074-6.668,8.718c-2.54-0.376-1.352-3.452-0.502-4.811   l0.533,0.62C316.378,206.928,312.165,207.906,307.905,208.7z"/>
	<path style="opacity:0.48;fill:#AE312F;" d="M170.4,174.545c2.175,3.975,3.956,8.522,7.221,11.709   c-0.22,1.004-0.342,6.58,1.507,5.007c1.067-1.805,0.94-4.463,1.169-6.513c1.105,2.591,2.236,5.605,4.223,7.631   c3.04,2.499,2.21-1.952,1.556-3.661c3.22,2.452,6.662,4.754,10.503,6.133c-3.619-0.825-6.916-2.663-10.002-4.697l0.646-0.477   c0.706,1.593,0.838,4.868-1.761,4.431c-2.923-0.949-4.035-4.172-5.312-6.654l1.143-0.197c-0.335,8.255-6.096,6.511-4.668-0.871   l0.165,0.444C173.668,183.315,172.104,178.833,170.4,174.545z"/>
	<path style="opacity:0.21;fill:#AE312F;" d="M325.746,131.896c-28.478-13.495-46.06,3.335-48.189,5.542   c0-0.188,0.016-0.376,0.031-0.564c0.783-8.157,6.059-15.17,13.496-18.505c8.705-3.898,21.245-4.446,28.431,2.724   C322.349,123.927,324.462,127.716,325.746,131.896z"/>
	<g>
		<path style="fill:#FFFFFF;" d="M117.325,229.404c-7.531,4.306-18.85,5.026-26.694,1.221c-1.675-0.814-3.209-1.863-4.556-3.178    c-5.824-5.746-8.611-15.233-7.985-23.328c0-0.188,0.016-0.376,0.031-0.564c0.783-8.157,6.059-15.171,13.496-18.505    c8.705-3.898,21.245-4.446,28.431,2.724c2.834,2.834,4.947,6.622,6.231,10.803h0.016    C129.756,209.709,127.407,223.627,117.325,229.404z"/>
		<path style="fill:#AE312F;" d="M117.325,229.404c-8.525,4.6-19.632,5.308-28.325,0.741c-8.658-5.327-12.252-16.31-11.909-26.102    l-0.003,0.077c0.404-9.013,6.452-17.124,14.73-20.428c8.008-3.24,17.651-3.858,25.303,0.771c5.014,3.096,8.023,8.488,9.615,13.975    l-0.456-0.337l0.016,0l0.362,0.008C129.851,208.972,127.851,223.293,117.325,229.404z M117.325,229.404    c10.357-6.036,12.094-20.156,8.515-30.685l0.455,0.335l-0.016,0l-0.341,0.008c-1.708-5.229-4.808-10.426-9.69-13.138    c-10.355-5.454-25.874-2.16-32.9,7.198c-1.57,2.152-2.839,4.546-3.542,7.126c-0.209,0.637-0.31,1.299-0.464,1.95    c-0.086,0.674-0.236,1.405-0.252,1.998c-0.748,9.2,2.277,19.952,10.276,25.338C97.705,234.468,108.88,233.93,117.325,229.404z"/>
	</g>
	<path style="fill:#AE312F;" d="M100.685,226.282c6.469,0.947,13.695-1.522,17.586-6.936c6.2-8.625,3.56-22.097-5.538-27.488   c-4.885-2.895-11.56-3.52-16.835-1.337c-14.098,5.834-12.984,27.334-0.304,34.123C97.155,225.481,98.885,226.018,100.685,226.282z"/>
	<path style="opacity:0.21;fill:#AE312F;" d="M126.28,198.577c-28.478-13.495-46.06,3.335-48.189,5.542   c0-0.188,0.016-0.376,0.031-0.564c0.783-8.157,6.059-15.171,13.496-18.505c8.705-3.898,21.245-4.446,28.431,2.724   C122.883,190.608,124.996,194.397,126.28,198.577z"/>
	<path style="opacity:0.21;fill:#AE312F;" d="M225.861,123.207c-12.446-7.577-28.572-4.743-36.87-2.458   c0.407-1.096,0.955-2.145,1.612-3.131c5.793-8.611,20.619-11.867,29.261-5.793c2.082,1.487,3.429,3.851,4.384,6.168   C224.906,119.575,225.454,121.344,225.861,123.207z"/>
	<path style="fill:#AE312F;" d="M288.666,431.618c-0.673-1.088-1.192-2.383-1.227-3.76c-0.07-1.375,0.363-2.793,1.149-3.941   c0.797-1.148,1.886-2.025,3.06-2.654c1.176-0.632,2.438-1.046,3.731-1.243c-1.126,0.666-2.229,1.301-3.235,2.034   c-0.994,0.74-1.912,1.557-2.57,2.54c-0.681,0.965-1.082,2.092-1.205,3.29C288.232,429.087,288.446,430.332,288.666,431.618z"/>
	<path style="fill:#AE312F;" d="M270.162,428.629c-0.443-1.035-0.646-2.15-0.722-3.272c-0.073-1.125,0.01-2.27,0.285-3.389   c0.3-1.11,0.786-2.194,1.517-3.105c0.743-0.905,1.748-1.562,2.811-1.897c-0.822,0.776-1.521,1.542-2.047,2.433   c-0.494,0.905-0.87,1.857-1.123,2.862c-0.271,1.002-0.398,2.049-0.514,3.109C270.272,426.433,270.208,427.512,270.162,428.629z"/>
	<path style="opacity:0.48;fill:#AE312F;" d="M268.132,400.961c0.921,4.195,5.736,3.138,5.614-0.942   c1.182,1.306,2.655,2.795,4.296,3.232c2.219,0.524,2.09-1.442,1.535-2.941c7.592,0.385,15.86,1.261,22.932-2.092   c-6.443,4.195-14.808,3.745-22.195,3.327l0.621-0.754c1.105,5.83-5.31,3.53-7.207,0.434l0.743-0.215   C273.946,405.088,268.308,405.219,268.132,400.961z"/>
	<path style="fill:#AE312F;" d="M371.801,125.263c-26.787,14.842-35.487-2.871-24.622-5.689c7.28-1.895,14.028-5.777,18.474-8.407   C368.424,115.614,370.705,120.191,371.801,125.263z"/>
	<path style="fill:#AE312F;" d="M373.414,149.724c0,0-21.711,5.609-30.964,1.46c-3.491-1.566-6.45-5.025-5.182-8.516   c0.517-1.393,1.675-2.583,3.069-3.445c4.117-2.568,9.738-2.975,14.638-3.476c5.574-0.579,12.804-3.157,18.002-5.427   C374.18,136.319,374.165,143.137,373.414,149.724z"/>
	<path style="fill:#AE312F;" d="M372.745,156.804c-0.971,6.622-2.865,12.885-5.762,18.709c-6.669,1.08-13.824-0.486-19.554-3.914   c-2.552-1.534-4.806-3.992-4.149-7.186c0.861-4.227,6.513-4.665,9.941-4.587C362.522,160.045,369.207,158.151,372.745,156.804z"/>
	<path style="fill:#AE312F;" d="M191.897,424.031c-0.259-0.755-0.284-1.563-0.182-2.352c0.099-0.794,0.374-1.571,0.782-2.284   c0.414-0.708,1.008-1.327,1.707-1.753c0.681-0.459,1.502-0.653,2.281-0.677c-0.628,0.499-1.226,0.891-1.706,1.412   c-0.484,0.501-0.923,1.023-1.255,1.629C192.811,421.19,192.367,422.537,191.897,424.031z"/>
	<path style="fill:#AE312F;" d="M180.696,420.847c-0.226-0.703-0.253-1.434-0.185-2.155c0.068-0.723,0.257-1.439,0.572-2.117   c0.333-0.667,0.784-1.3,1.385-1.775c0.608-0.468,1.356-0.74,2.086-0.734c-0.574,0.471-1.038,0.905-1.432,1.4   c-0.368,0.514-0.69,1.044-0.959,1.622c-0.289,0.568-0.503,1.185-0.744,1.807C181.192,419.524,180.965,420.167,180.696,420.847z"/>
	<path style="opacity:0.48;fill:#AE312F;" d="M196.484,396.844c1.115,4.992,3.406,7.496,5.715,1.305   c1.642,4.483,4.889,10.908,7.927,3.104c0.184,5.004,3.487,8.605,8.306,9.738c-4.326-0.283-8.382-3.366-9.152-7.774l1.062,0.141   c-3.145,6.284-7.464,0.56-8.647-3.667l0.965,0.02C199.542,405.508,196.602,401.579,196.484,396.844z"/>
	<path style="opacity:0.48;fill:#AE312F;" d="M184.253,406.719c3.52-0.556,7.126-0.316,10.622,0.356   c1.749,0.347,3.474,0.831,5.139,1.476c1.679,0.604,3.257,1.477,4.741,2.441c-1.695-0.548-3.345-1.111-5.033-1.554   c-1.682-0.451-3.369-0.873-5.08-1.191c-1.704-0.35-3.423-0.629-5.153-0.881C187.757,407.133,186.019,406.899,184.253,406.719z"/>
	<path style="opacity:0.48;fill:#AE312F;" d="M268.132,409.114c2.73-0.473,5.503-0.628,8.275-0.654   c2.773-0.033,5.548,0.168,8.305,0.507c2.755,0.367,5.487,0.946,8.147,1.758c2.657,0.826,5.23,1.929,7.609,3.341   c-1.322-0.431-2.566-1.007-3.904-1.345c-1.293-0.451-2.626-0.774-3.949-1.108c-2.669-0.59-5.346-1.126-8.06-1.46   c-2.709-0.363-5.437-0.592-8.173-0.777c-1.369-0.091-2.741-0.15-4.115-0.178C270.891,409.124,269.516,409.132,268.132,409.114z"/>
	<path style="fill:#AE312F;" d="M375.25,246.263c-1.049-0.83-2.02-1.832-2.912-2.975c-1.753-2.254-2.756-5.025-3.209-7.859   c-0.266-1.55-0.345-3.178,0.109-4.697c0.971-3.257,4.18-5.307,7.358-6.513c1.769-0.673,3.617-1.174,5.495-1.487   C382.389,230.466,380.589,238.732,375.25,246.263z"/>
	<path style="fill:#AE312F;" d="M399.768,126.385c-0.235,0.219-0.47,0.438-0.72,0.658c-3.507-4.039,0.877-9.033,0.877-9.033   c-6.153,2.176-17.848,0.752-23.687-3.397c11.272-8.752,22.826-12.008,28.917-5.902C410.57,114.126,406.594,120.075,399.768,126.385   z"/>
	<path style="fill:#AE312F;" d="M165.789,164.458c4.154-1.413,8.388-2.472,12.641-3.445c4.261-0.938,8.542-1.787,12.903-2.279   c-4.154,1.416-8.388,2.475-12.641,3.445C174.43,163.114,170.149,163.963,165.789,164.458z"/>
	<path style="fill:#AE312F;" d="M163.72,153.773c4.222-0.38,8.436-0.397,12.648-0.326c4.212,0.107,8.421,0.305,12.623,0.869   c-4.222,0.382-8.436,0.4-12.648,0.326C172.131,154.532,167.922,154.333,163.72,153.773z"/>
	<path style="fill:#AE312F;" d="M167.043,140.674c3.959,1.516,7.751,3.353,11.503,5.269c3.735,1.948,7.429,3.977,10.954,6.331   c-3.96-1.513-7.752-3.35-11.503-5.269C174.263,145.055,170.57,143.026,167.043,140.674z"/>
	<path style="fill:#FF5555;" d="M133.57,169.409c0-0.731-2.732-26.959,11.202-36.521c13.934-9.562,15.846,28.007-3.825,42.964   C121.276,190.808,133.57,169.409,133.57,169.409z"/>
	<path style="fill:#FFC893;" d="M56.259,269.621c-69.528-12.854-57.536-83.29-51.414-88.472c2.317-1.973,13.229-4.352,27.539-6.622   C58.608,182.026,56.259,269.621,56.259,269.621z"/>
	<path style="fill:#FFFFFF;" d="M415.395,202.944c1.844-1.17,3.953-3.775,1.184-5.143c-1.589-0.785-3.669-0.676-5.12,0.28   c-1.455,0.958-4.309,3.518-3.07,5.32C409.945,205.663,413.689,204.025,415.395,202.944z"/>
	<path style="fill:#FFFFFF;" d="M418.737,195.194c-0.129,0.195-0.202,0.44-0.143,0.666c0.081,0.315,0.391,0.521,0.703,0.613   c0.605,0.179,1.297,0.025,1.768-0.394c0.14-0.124,0.265-0.277,0.312-0.458c0.106-0.408-0.228-0.825-0.625-0.965   C420.097,194.424,419.142,194.584,418.737,195.194z"/>
	<path style="fill:#FFFFFF;" d="M96.035,131.997c-0.636,0.355-1.244,0.806-1.621,1.43c-0.377,0.624-0.484,1.447-0.126,2.082   c0.407,0.72,1.275,1.026,2.083,1.204c1.902,0.419,3.896,0.446,5.792,0.005c0.903-0.21,1.813-0.545,2.47-1.199   c0.657-0.654,1.001-1.691,0.628-2.541c-0.622-1.418-3.053-2.158-4.474-2.235C99.234,130.658,97.37,131.252,96.035,131.997z"/>
	<path style="fill:#FFFFFF;" d="M87.043,138.546c-0.08,0.195-0.138,0.411-0.092,0.617c0.069,0.309,0.351,0.523,0.632,0.67   c1.447,0.757,3.395,0.379,4.452-0.865c0.222-0.261,0.414-0.579,0.395-0.921c-0.025-0.465-0.431-0.825-0.856-1.016   C90.025,136.333,87.718,136.885,87.043,138.546z"/>
	<path style="opacity:0.2;fill:#AE312F;" d="M141.797,168.932c0,0,10.6-13.182,6-26.791   C147.797,142.141,135.997,148.532,141.797,168.932z"/>
	<path style="fill:#FFFFFF;" d="M331.116,79.98c0,0-3.037-0.203-3.852-0.908c-0.829-0.704,3.852-0.814,3.852-0.814   c-2.333-1.002-4.243-3.742-3.444-3.789c0.814-0.063,3.538,1.973,3.538,1.973c-2.834-4.149-0.814-10.411,2.333-10.004   c1.346,0.172,2.802,3.162,4.023,6.513c-2.145,11.132,4.54,19.32,5.762,20.353c-4.979-4.525-11.022-7.703-15.954-9.754   C328.157,81.296,331.116,79.98,331.116,79.98z"/>
	<path style="fill:#FFFFFF;" d="M214.448,75.268c0.438-2.521,3.084-6.012,3.319-6.309c-0.203,0.078-2.364,1.002-3.366,0.438   c-1.049-0.595,2.552-2.02,2.552-2.02s-2.771,0.219-2.99-0.611c-0.235-0.814,2.583-0.595,2.583-0.595   c-1.988-1.205-5.589-6.607-3.115-8.032c1.612-0.924,3.757,0.783,5.072,2.098c1.785,5.182,4.399,9.378,11.257,11.773   C229.759,72.011,221.336,73.702,214.448,75.268z"/>
	<path style="fill:#FFFFFF;" d="M113.608,357.117c2.064,0.669,4.197,1.201,6.366,1.227c4.507,0.054,9.863-2.775,8.144-7.952   c-1.049-3.159-3.86-5.342-7.132-5.717C114.255,343.902,103.289,353.771,113.608,357.117z"/>
	<path style="fill:#FFFFFF;" d="M127.342,363.836c-0.338,0.357-0.608,0.806-0.635,1.297c-0.025,0.464,0.171,0.915,0.432,1.3   c0.681,1.002,1.889,1.661,3.097,1.565c1.208-0.097,2.339-1.014,2.57-2.203c0.23-1.19-0.562-2.522-1.745-2.783   C129.804,362.736,128.264,362.861,127.342,363.836z"/>
	<path style="opacity:0.48;fill:#AE312F;" d="M239.707,143.841c-3.995,0.605-7.949,2.741-10.494,6.35   c-3.688,5.232-4.848,12.068-1.058,17.375c2.352,3.294,5.869,5.26,9.456,6.566c6.873,2.503,13.877,4.504,21.23,3.064   c2.667-0.522,5.329-1.449,7.602-3.169c3.482-2.637,5.834-7.138,6.166-11.799c0.332-4.661-1.365-9.373-4.447-12.352   c-3.792-3.665-9.764-5.202-14.724-5.531C249.02,144.052,244.099,143.176,239.707,143.841z"/>
	<path style="fill:#AE312F;" d="M311.217,175.868c4.36,0.495,8.641,1.344,12.902,2.279c4.254,0.97,8.487,2.029,12.641,3.445   c-4.361-0.492-8.641-1.341-12.902-2.279C319.605,178.34,315.371,177.281,311.217,175.868z"/>
	<path style="fill:#AE312F;" d="M338.829,170.907c-4.202,0.561-8.411,0.759-12.623,0.869c-4.212,0.074-8.426,0.056-12.648-0.326   c4.202-0.563,8.411-0.762,12.622-0.869C330.393,170.51,334.607,170.527,338.829,170.907z"/>
	<path style="fill:#AE312F;" d="M335.506,157.809c-3.527,2.351-7.221,4.38-10.955,6.331c-3.751,1.918-7.543,3.756-11.503,5.269   c3.526-2.354,7.22-4.383,10.955-6.331C327.755,161.162,331.547,159.325,335.506,157.809z"/>
	<path style="fill:#AE312F;" d="M12.753,222.732c2.167,1.245,4.261,2.293,6.365,2.993c2.098,0.704,4.174,0.985,6.158,0.697   c1.988-0.266,3.917-1.118,5.783-2.339c1.888-1.199,3.663-2.758,5.611-4.347c-0.707,2.413-1.981,4.644-3.806,6.515   c-1.799,1.863-4.289,3.356-7.092,3.723c-2.793,0.407-5.625-0.344-7.854-1.707C15.683,226.893,13.854,225.01,12.753,222.732z"/>
	<ellipse style="fill:#FFC893;" cx="320.867" cy="448.227" rx="56.306" ry="19.598"/>
	<path style="fill:#FFC893;" d="M262.104,458.779c0,3.118-7.263,5.646-16.222,5.646c-8.959,0-16.222-2.528-16.222-5.646   c0-3.118,7.263-5.646,16.222-5.646C254.841,453.132,262.104,455.66,262.104,458.779z"/>
	<ellipse style="opacity:0.2;fill:#AE312F;" cx="370.682" cy="408.547" rx="6.491" ry="2.26"/>
	<ellipse style="opacity:0.2;fill:#AE312F;" cx="140.714" cy="403.884" rx="6.491" ry="2.26"/>
	<path style="opacity:0.2;fill:#AE312F;" d="M372.651,418.997c0,2.099-4.888,3.8-10.918,3.8c-6.03,0-10.918-1.702-10.918-3.8   c0-2.099,4.888-3.8,10.918-3.8C367.762,415.197,372.651,416.898,372.651,418.997z"/>
	<path style="opacity:0.2;fill:#AE312F;" d="M162.55,416.407c0,2.099-4.888,3.8-10.918,3.8s-10.918-1.702-10.918-3.8   c0-2.099,4.888-3.8,10.918-3.8S162.55,414.308,162.55,416.407z"/>
	<path style="fill:#FFC893;" d="M136.754,435.739c0,2.462-5.734,4.458-12.809,4.458c-7.074,0-12.809-1.996-12.809-4.458   c0-2.462,5.735-4.458,12.809-4.458C131.019,431.281,136.754,433.277,136.754,435.739z"/>
	<path style="opacity:0.48;fill:#AE312F;" d="M230.762,236.695c-12.871-7.739-17.697-2.364-2.172,3.639   c-3.131,0.804-6.955,1.312-9.619,3.041c0.064-0.175-0.14-0.25,0.107-0.136c3.003,0.52,6.269-0.302,9.275-0.703   c-1.602,1.453-3.292,3.005-4.772,4.577c-1.289,1.566-3.357,3.226-3.579,5.246c1.682,1.194,5.415-2.065,6.963-3.039   c-2.796,4.529-3.903,10.206-2.382,15.378c-1.715-4.613-1.275-9.884,0.905-14.282l0.567,0.491c-1.749,1.128-4.987,4.117-6.94,1.933   c-0.313-0.66-0.089-1.166,0.046-1.574c1.639-3.301,4.441-5.737,7.006-8.285l0.484,0.988c-1.477,0.2-10.42,1.964-8.489-1.403   c2.527-1.807,5.714-2.13,8.648-2.904l-0.096,0.992c-2.155-1.035-11.877-5.316-7.525-8.178   C223.419,231.4,227.347,234.638,230.762,236.695z"/>
</g>















</svg>
